<?xml version="1.0" encoding="utf-8" standalone="no"?>
<!DOCTYPE svg PUBLIC "-//W3C//DTD SVG 1.1//EN"
  "http://www.w3.org/Graphics/SVG/1.1/DTD/svg11.dtd">
<svg xmlns:xlink="http://www.w3.org/1999/xlink" width="720pt" height="288pt" viewBox="0 0 720 288" xmlns="http://www.w3.org/2000/svg" version="1.1">
 <metadata>
  <rdf:RDF xmlns:dc="http://purl.org/dc/elements/1.1/" xmlns:cc="http://creativecommons.org/ns#" xmlns:rdf="http://www.w3.org/1999/02/22-rdf-syntax-ns#">
   <cc:Work>
    <dc:type rdf:resource="http://purl.org/dc/dcmitype/StillImage"/>
    <dc:date>2026-06-14T20:48:44.606341</dc:date>
    <dc:format>image/svg+xml</dc:format>
    <dc:creator>
     <cc:Agent>
      <dc:title>Matplotlib v3.11.0, https://matplotlib.org/</dc:title>
     </cc:Agent>
    </dc:creator>
   </cc:Work>
  </rdf:RDF>
 </metadata>
 <defs>
  <style type="text/css">*{stroke-linejoin: round; stroke-linecap: butt}</style>
 </defs>
 <g id="figure_1">
  <g id="patch_1">
   <path d="M 0 288 
L 720 288 
L 720 0 
L 0 0 
z
" style="fill: #ffffff"/>
  </g>
  <g id="axes_1">
   <g id="patch_2">
    <path d="M 47.962344 245.877656 
L 709.2 245.877656 
L 709.2 26.16 
L 47.962344 26.16 
z
" style="fill: #ffffff"/>
   </g>
   <g id="matplotlib.axis_1">
    <g id="xtick_1">
     <g id="line2d_1">
      <defs>
       <path id="mbf2a88f5a6" d="M 0 0 
L 0 3.5 
" style="stroke: #000000; stroke-width: 0.8"/>
      </defs>
      <g>
       <use xlink:href="#mbf2a88f5a6" x="78.018601" y="245.877656" style="stroke: #000000; stroke-width: 0.8"/>
      </g>
     </g>
     <g id="text_1">
      <!-- 0 -->
      <g transform="translate(74.837351 260.475312) scale(0.1 -0.1)">
       <defs>
        <path id="DejaVuSans-13" d="M 2034 4250 
Q 1547 4250 1301 3770 
Q 1056 3291 1056 2328 
Q 1056 1369 1301 889 
Q 1547 409 2034 409 
Q 2525 409 2770 889 
Q 3016 1369 3016 2328 
Q 3016 3291 2770 3770 
Q 2525 4250 2034 4250 
z
M 2034 4750 
Q 2819 4750 3233 4129 
Q 3647 3509 3647 2328 
Q 3647 1150 3233 529 
Q 2819 -91 2034 -91 
Q 1250 -91 836 529 
Q 422 1150 422 2328 
Q 422 3509 836 4129 
Q 1250 4750 2034 4750 
z
" transform="scale(0.015625)"/>
       </defs>
       <use xlink:href="#DejaVuSans-13"/>
      </g>
     </g>
    </g>
    <g id="xtick_2">
     <g id="line2d_2">
      <g>
       <use xlink:href="#mbf2a88f5a6" x="184.98037" y="245.877656" style="stroke: #000000; stroke-width: 0.8"/>
      </g>
     </g>
     <g id="text_2">
      <!-- 200 -->
      <g transform="translate(175.43662 260.475312) scale(0.1 -0.1)">
       <defs>
        <path id="DejaVuSans-15" d="M 1228 531 
L 3431 531 
L 3431 0 
L 469 0 
L 469 531 
Q 828 903 1448 1529 
Q 2069 2156 2228 2338 
Q 2531 2678 2651 2914 
Q 2772 3150 2772 3378 
Q 2772 3750 2511 3984 
Q 2250 4219 1831 4219 
Q 1534 4219 1204 4116 
Q 875 4013 500 3803 
L 500 4441 
Q 881 4594 1212 4672 
Q 1544 4750 1819 4750 
Q 2544 4750 2975 4387 
Q 3406 4025 3406 3419 
Q 3406 3131 3298 2873 
Q 3191 2616 2906 2266 
Q 2828 2175 2409 1742 
Q 1991 1309 1228 531 
z
" transform="scale(0.015625)"/>
       </defs>
       <use xlink:href="#DejaVuSans-15"/>
       <use xlink:href="#DejaVuSans-13" transform="translate(63.625 0)"/>
       <use xlink:href="#DejaVuSans-13" transform="translate(127.25 0)"/>
      </g>
     </g>
    </g>
    <g id="xtick_3">
     <g id="line2d_3">
      <g>
       <use xlink:href="#mbf2a88f5a6" x="291.942139" y="245.877656" style="stroke: #000000; stroke-width: 0.8"/>
      </g>
     </g>
     <g id="text_3">
      <!-- 400 -->
      <g transform="translate(282.398389 260.475312) scale(0.1 -0.1)">
       <defs>
        <path id="DejaVuSans-17" d="M 2419 4116 
L 825 1625 
L 2419 1625 
L 2419 4116 
z
M 2253 4666 
L 3047 4666 
L 3047 1625 
L 3713 1625 
L 3713 1100 
L 3047 1100 
L 3047 0 
L 2419 0 
L 2419 1100 
L 313 1100 
L 313 1709 
L 2253 4666 
z
" transform="scale(0.015625)"/>
       </defs>
       <use xlink:href="#DejaVuSans-17"/>
       <use xlink:href="#DejaVuSans-13" transform="translate(63.625 0)"/>
       <use xlink:href="#DejaVuSans-13" transform="translate(127.25 0)"/>
      </g>
     </g>
    </g>
    <g id="xtick_4">
     <g id="line2d_4">
      <g>
       <use xlink:href="#mbf2a88f5a6" x="398.903908" y="245.877656" style="stroke: #000000; stroke-width: 0.8"/>
      </g>
     </g>
     <g id="text_4">
      <!-- 600 -->
      <g transform="translate(389.360158 260.475312) scale(0.1 -0.1)">
       <defs>
        <path id="DejaVuSans-19" d="M 2113 2584 
Q 1688 2584 1439 2293 
Q 1191 2003 1191 1497 
Q 1191 994 1439 701 
Q 1688 409 2113 409 
Q 2538 409 2786 701 
Q 3034 994 3034 1497 
Q 3034 2003 2786 2293 
Q 2538 2584 2113 2584 
z
M 3366 4563 
L 3366 3988 
Q 3128 4100 2886 4159 
Q 2644 4219 2406 4219 
Q 1781 4219 1451 3797 
Q 1122 3375 1075 2522 
Q 1259 2794 1537 2939 
Q 1816 3084 2150 3084 
Q 2853 3084 3261 2657 
Q 3669 2231 3669 1497 
Q 3669 778 3244 343 
Q 2819 -91 2113 -91 
Q 1303 -91 875 529 
Q 447 1150 447 2328 
Q 447 3434 972 4092 
Q 1497 4750 2381 4750 
Q 2619 4750 2861 4703 
Q 3103 4656 3366 4563 
z
" transform="scale(0.015625)"/>
       </defs>
       <use xlink:href="#DejaVuSans-19"/>
       <use xlink:href="#DejaVuSans-13" transform="translate(63.625 0)"/>
       <use xlink:href="#DejaVuSans-13" transform="translate(127.25 0)"/>
      </g>
     </g>
    </g>
    <g id="xtick_5">
     <g id="line2d_5">
      <g>
       <use xlink:href="#mbf2a88f5a6" x="505.865677" y="245.877656" style="stroke: #000000; stroke-width: 0.8"/>
      </g>
     </g>
     <g id="text_5">
      <!-- 800 -->
      <g transform="translate(496.321927 260.475312) scale(0.1 -0.1)">
       <defs>
        <path id="DejaVuSans-1b" d="M 2034 2216 
Q 1584 2216 1326 1975 
Q 1069 1734 1069 1313 
Q 1069 891 1326 650 
Q 1584 409 2034 409 
Q 2484 409 2743 651 
Q 3003 894 3003 1313 
Q 3003 1734 2745 1975 
Q 2488 2216 2034 2216 
z
M 1403 2484 
Q 997 2584 770 2862 
Q 544 3141 544 3541 
Q 544 4100 942 4425 
Q 1341 4750 2034 4750 
Q 2731 4750 3128 4425 
Q 3525 4100 3525 3541 
Q 3525 3141 3298 2862 
Q 3072 2584 2669 2484 
Q 3125 2378 3379 2068 
Q 3634 1759 3634 1313 
Q 3634 634 3220 271 
Q 2806 -91 2034 -91 
Q 1263 -91 848 271 
Q 434 634 434 1313 
Q 434 1759 690 2068 
Q 947 2378 1403 2484 
z
M 1172 3481 
Q 1172 3119 1398 2916 
Q 1625 2713 2034 2713 
Q 2441 2713 2670 2916 
Q 2900 3119 2900 3481 
Q 2900 3844 2670 4047 
Q 2441 4250 2034 4250 
Q 1625 4250 1398 4047 
Q 1172 3844 1172 3481 
z
" transform="scale(0.015625)"/>
       </defs>
       <use xlink:href="#DejaVuSans-1b"/>
       <use xlink:href="#DejaVuSans-13" transform="translate(63.625 0)"/>
       <use xlink:href="#DejaVuSans-13" transform="translate(127.25 0)"/>
      </g>
     </g>
    </g>
    <g id="xtick_6">
     <g id="line2d_6">
      <g>
       <use xlink:href="#mbf2a88f5a6" x="612.827446" y="245.877656" style="stroke: #000000; stroke-width: 0.8"/>
      </g>
     </g>
     <g id="text_6">
      <!-- 1000 -->
      <g transform="translate(600.102446 260.475312) scale(0.1 -0.1)">
       <defs>
        <path id="DejaVuSans-14" d="M 794 531 
L 1825 531 
L 1825 4091 
L 703 3866 
L 703 4441 
L 1819 4666 
L 2450 4666 
L 2450 531 
L 3481 531 
L 3481 0 
L 794 0 
L 794 531 
z
" transform="scale(0.015625)"/>
       </defs>
       <use xlink:href="#DejaVuSans-14"/>
       <use xlink:href="#DejaVuSans-13" transform="translate(63.625 0)"/>
       <use xlink:href="#DejaVuSans-13" transform="translate(127.25 0)"/>
       <use xlink:href="#DejaVuSans-13" transform="translate(190.875 0)"/>
      </g>
     </g>
    </g>
    <g id="text_7">
     <!-- Training step -->
     <g transform="translate(346.448359 274.476094) scale(0.1 -0.1)">
      <defs>
       <path id="DejaVuSans-37" d="M -19 4666 
L 3928 4666 
L 3928 4134 
L 2272 4134 
L 2272 0 
L 1638 0 
L 1638 4134 
L -19 4134 
L -19 4666 
z
" transform="scale(0.015625)"/>
       <path id="DejaVuSans-55" d="M 2631 2963 
Q 2534 3019 2420 3045 
Q 2306 3072 2169 3072 
Q 1681 3072 1420 2755 
Q 1159 2438 1159 1844 
L 1159 0 
L 581 0 
L 581 3500 
L 1159 3500 
L 1159 2956 
Q 1341 3275 1631 3429 
Q 1922 3584 2338 3584 
Q 2397 3584 2469 3576 
Q 2541 3569 2628 3553 
L 2631 2963 
z
" transform="scale(0.015625)"/>
       <path id="DejaVuSans-44" d="M 2194 1759 
Q 1497 1759 1228 1600 
Q 959 1441 959 1056 
Q 959 750 1161 570 
Q 1363 391 1709 391 
Q 2188 391 2477 730 
Q 2766 1069 2766 1631 
L 2766 1759 
L 2194 1759 
z
M 3341 1997 
L 3341 0 
L 2766 0 
L 2766 531 
Q 2569 213 2275 61 
Q 1981 -91 1556 -91 
Q 1019 -91 701 211 
Q 384 513 384 1019 
Q 384 1609 779 1909 
Q 1175 2209 1959 2209 
L 2766 2209 
L 2766 2266 
Q 2766 2663 2505 2880 
Q 2244 3097 1772 3097 
Q 1472 3097 1187 3025 
Q 903 2953 641 2809 
L 641 3341 
Q 956 3463 1253 3523 
Q 1550 3584 1831 3584 
Q 2591 3584 2966 3190 
Q 3341 2797 3341 1997 
z
" transform="scale(0.015625)"/>
       <path id="DejaVuSans-4c" d="M 603 3500 
L 1178 3500 
L 1178 0 
L 603 0 
L 603 3500 
z
M 603 4863 
L 1178 4863 
L 1178 4134 
L 603 4134 
L 603 4863 
z
" transform="scale(0.015625)"/>
       <path id="DejaVuSans-51" d="M 3513 2113 
L 3513 0 
L 2938 0 
L 2938 2094 
Q 2938 2591 2744 2837 
Q 2550 3084 2163 3084 
Q 1697 3084 1428 2787 
Q 1159 2491 1159 1978 
L 1159 0 
L 581 0 
L 581 3500 
L 1159 3500 
L 1159 2956 
Q 1366 3272 1645 3428 
Q 1925 3584 2291 3584 
Q 2894 3584 3203 3211 
Q 3513 2838 3513 2113 
z
" transform="scale(0.015625)"/>
       <path id="DejaVuSans-4a" d="M 2906 1791 
Q 2906 2416 2648 2759 
Q 2391 3103 1925 3103 
Q 1463 3103 1205 2759 
Q 947 2416 947 1791 
Q 947 1169 1205 825 
Q 1463 481 1925 481 
Q 2391 481 2648 825 
Q 2906 1169 2906 1791 
z
M 3481 434 
Q 3481 -459 3084 -895 
Q 2688 -1331 1869 -1331 
Q 1566 -1331 1297 -1286 
Q 1028 -1241 775 -1147 
L 775 -588 
Q 1028 -725 1275 -790 
Q 1522 -856 1778 -856 
Q 2344 -856 2625 -561 
Q 2906 -266 2906 331 
L 2906 616 
Q 2728 306 2450 153 
Q 2172 0 1784 0 
Q 1141 0 747 490 
Q 353 981 353 1791 
Q 353 2603 747 3093 
Q 1141 3584 1784 3584 
Q 2172 3584 2450 3431 
Q 2728 3278 2906 2969 
L 2906 3500 
L 3481 3500 
L 3481 434 
z
" transform="scale(0.015625)"/>
       <path id="DejaVuSans-3" transform="scale(0.015625)"/>
       <path id="DejaVuSans-56" d="M 2834 3397 
L 2834 2853 
Q 2591 2978 2328 3040 
Q 2066 3103 1784 3103 
Q 1356 3103 1142 2972 
Q 928 2841 928 2578 
Q 928 2378 1081 2264 
Q 1234 2150 1697 2047 
L 1894 2003 
Q 2506 1872 2764 1633 
Q 3022 1394 3022 966 
Q 3022 478 2636 193 
Q 2250 -91 1575 -91 
Q 1294 -91 989 -36 
Q 684 19 347 128 
L 347 722 
Q 666 556 975 473 
Q 1284 391 1588 391 
Q 1994 391 2212 530 
Q 2431 669 2431 922 
Q 2431 1156 2273 1281 
Q 2116 1406 1581 1522 
L 1381 1569 
Q 847 1681 609 1914 
Q 372 2147 372 2553 
Q 372 3047 722 3315 
Q 1072 3584 1716 3584 
Q 2034 3584 2315 3537 
Q 2597 3491 2834 3397 
z
" transform="scale(0.015625)"/>
       <path id="DejaVuSans-57" d="M 1172 4494 
L 1172 3500 
L 2356 3500 
L 2356 3053 
L 1172 3053 
L 1172 1153 
Q 1172 725 1289 603 
Q 1406 481 1766 481 
L 2356 481 
L 2356 0 
L 1766 0 
Q 1100 0 847 248 
Q 594 497 594 1153 
L 594 3053 
L 172 3053 
L 172 3500 
L 594 3500 
L 594 4494 
L 1172 4494 
z
" transform="scale(0.015625)"/>
       <path id="DejaVuSans-48" d="M 3597 1894 
L 3597 1613 
L 953 1613 
Q 991 1019 1311 708 
Q 1631 397 2203 397 
Q 2534 397 2845 478 
Q 3156 559 3463 722 
L 3463 178 
Q 3153 47 2828 -22 
Q 2503 -91 2169 -91 
Q 1331 -91 842 396 
Q 353 884 353 1716 
Q 353 2575 817 3079 
Q 1281 3584 2069 3584 
Q 2775 3584 3186 3129 
Q 3597 2675 3597 1894 
z
M 3022 2063 
Q 3016 2534 2758 2815 
Q 2500 3097 2075 3097 
Q 1594 3097 1305 2825 
Q 1016 2553 972 2059 
L 3022 2063 
z
" transform="scale(0.015625)"/>
       <path id="DejaVuSans-53" d="M 1159 525 
L 1159 -1331 
L 581 -1331 
L 581 3500 
L 1159 3500 
L 1159 2969 
Q 1341 3281 1617 3432 
Q 1894 3584 2278 3584 
Q 2916 3584 3314 3078 
Q 3713 2572 3713 1747 
Q 3713 922 3314 415 
Q 2916 -91 2278 -91 
Q 1894 -91 1617 61 
Q 1341 213 1159 525 
z
M 3116 1747 
Q 3116 2381 2855 2742 
Q 2594 3103 2138 3103 
Q 1681 3103 1420 2742 
Q 1159 2381 1159 1747 
Q 1159 1113 1420 752 
Q 1681 391 2138 391 
Q 2594 391 2855 752 
Q 3116 1113 3116 1747 
z
" transform="scale(0.015625)"/>
      </defs>
      <use xlink:href="#DejaVuSans-37"/>
      <use xlink:href="#DejaVuSans-55" transform="translate(46.375 0)"/>
      <use xlink:href="#DejaVuSans-44" transform="translate(87.484375 0)"/>
      <use xlink:href="#DejaVuSans-4c" transform="translate(148.765625 0)"/>
      <use xlink:href="#DejaVuSans-51" transform="translate(176.546875 0)"/>
      <use xlink:href="#DejaVuSans-4c" transform="translate(239.921875 0)"/>
      <use xlink:href="#DejaVuSans-51" transform="translate(267.703125 0)"/>
      <use xlink:href="#DejaVuSans-4a" transform="translate(331.078125 0)"/>
      <use xlink:href="#DejaVuSans-3" transform="translate(394.5625 0)"/>
      <use xlink:href="#DejaVuSans-56" transform="translate(426.34375 0)"/>
      <use xlink:href="#DejaVuSans-57" transform="translate(478.4375 0)"/>
      <use xlink:href="#DejaVuSans-48" transform="translate(517.640625 0)"/>
      <use xlink:href="#DejaVuSans-53" transform="translate(579.171875 0)"/>
     </g>
    </g>
   </g>
   <g id="matplotlib.axis_2">
    <g id="ytick_1">
     <g id="line2d_7">
      <defs>
       <path id="me22fd3039d" d="M 0 0 
L -3.5 0 
" style="stroke: #000000; stroke-width: 0.8"/>
      </defs>
      <g>
       <use xlink:href="#me22fd3039d" x="47.962344" y="213.634298" style="stroke: #000000; stroke-width: 0.8"/>
      </g>
     </g>
     <g id="text_8">
      <!-- 2.6 -->
      <g transform="translate(25.059219 217.433126) scale(0.1 -0.1)">
       <defs>
        <path id="DejaVuSans-11" d="M 684 794 
L 1344 794 
L 1344 0 
L 684 0 
L 684 794 
z
" transform="scale(0.015625)"/>
       </defs>
       <use xlink:href="#DejaVuSans-15"/>
       <use xlink:href="#DejaVuSans-11" transform="translate(63.625 0)"/>
       <use xlink:href="#DejaVuSans-19" transform="translate(95.40625 0)"/>
      </g>
     </g>
    </g>
    <g id="ytick_2">
     <g id="line2d_8">
      <g>
       <use xlink:href="#me22fd3039d" x="47.962344" y="174.672012" style="stroke: #000000; stroke-width: 0.8"/>
      </g>
     </g>
     <g id="text_9">
      <!-- 2.8 -->
      <g transform="translate(25.059219 178.47084) scale(0.1 -0.1)">
       <use xlink:href="#DejaVuSans-15"/>
       <use xlink:href="#DejaVuSans-11" transform="translate(63.625 0)"/>
       <use xlink:href="#DejaVuSans-1b" transform="translate(95.40625 0)"/>
      </g>
     </g>
    </g>
    <g id="ytick_3">
     <g id="line2d_9">
      <g>
       <use xlink:href="#me22fd3039d" x="47.962344" y="135.709726" style="stroke: #000000; stroke-width: 0.8"/>
      </g>
     </g>
     <g id="text_10">
      <!-- 3.0 -->
      <g transform="translate(25.059219 139.508554) scale(0.1 -0.1)">
       <defs>
        <path id="DejaVuSans-16" d="M 2597 2516 
Q 3050 2419 3304 2112 
Q 3559 1806 3559 1356 
Q 3559 666 3084 287 
Q 2609 -91 1734 -91 
Q 1441 -91 1130 -33 
Q 819 25 488 141 
L 488 750 
Q 750 597 1062 519 
Q 1375 441 1716 441 
Q 2309 441 2620 675 
Q 2931 909 2931 1356 
Q 2931 1769 2642 2001 
Q 2353 2234 1838 2234 
L 1294 2234 
L 1294 2753 
L 1863 2753 
Q 2328 2753 2575 2939 
Q 2822 3125 2822 3475 
Q 2822 3834 2567 4026 
Q 2313 4219 1838 4219 
Q 1578 4219 1281 4162 
Q 984 4106 628 3988 
L 628 4550 
Q 988 4650 1302 4700 
Q 1616 4750 1894 4750 
Q 2613 4750 3031 4423 
Q 3450 4097 3450 3541 
Q 3450 3153 3228 2886 
Q 3006 2619 2597 2516 
z
" transform="scale(0.015625)"/>
       </defs>
       <use xlink:href="#DejaVuSans-16"/>
       <use xlink:href="#DejaVuSans-11" transform="translate(63.625 0)"/>
       <use xlink:href="#DejaVuSans-13" transform="translate(95.40625 0)"/>
      </g>
     </g>
    </g>
    <g id="ytick_4">
     <g id="line2d_10">
      <g>
       <use xlink:href="#me22fd3039d" x="47.962344" y="96.747439" style="stroke: #000000; stroke-width: 0.8"/>
      </g>
     </g>
     <g id="text_11">
      <!-- 3.2 -->
      <g transform="translate(25.059219 100.546267) scale(0.1 -0.1)">
       <use xlink:href="#DejaVuSans-16"/>
       <use xlink:href="#DejaVuSans-11" transform="translate(63.625 0)"/>
       <use xlink:href="#DejaVuSans-15" transform="translate(95.40625 0)"/>
      </g>
     </g>
    </g>
    <g id="ytick_5">
     <g id="line2d_11">
      <g>
       <use xlink:href="#me22fd3039d" x="47.962344" y="57.785153" style="stroke: #000000; stroke-width: 0.8"/>
      </g>
     </g>
     <g id="text_12">
      <!-- 3.4 -->
      <g transform="translate(25.059219 61.583981) scale(0.1 -0.1)">
       <use xlink:href="#DejaVuSans-16"/>
       <use xlink:href="#DejaVuSans-11" transform="translate(63.625 0)"/>
       <use xlink:href="#DejaVuSans-17" transform="translate(95.40625 0)"/>
      </g>
     </g>
    </g>
    <g id="text_13">
     <!-- Train loss -->
     <g transform="translate(18.656875 159.261797) rotate(-90) scale(0.1 -0.1)">
      <defs>
       <path id="DejaVuSans-4f" d="M 603 4863 
L 1178 4863 
L 1178 0 
L 603 0 
L 603 4863 
z
" transform="scale(0.015625)"/>
       <path id="DejaVuSans-52" d="M 1959 3097 
Q 1497 3097 1228 2736 
Q 959 2375 959 1747 
Q 959 1119 1226 758 
Q 1494 397 1959 397 
Q 2419 397 2687 759 
Q 2956 1122 2956 1747 
Q 2956 2369 2687 2733 
Q 2419 3097 1959 3097 
z
M 1959 3584 
Q 2709 3584 3137 3096 
Q 3566 2609 3566 1747 
Q 3566 888 3137 398 
Q 2709 -91 1959 -91 
Q 1206 -91 779 398 
Q 353 888 353 1747 
Q 353 2609 779 3096 
Q 1206 3584 1959 3584 
z
" transform="scale(0.015625)"/>
      </defs>
      <use xlink:href="#DejaVuSans-37"/>
      <use xlink:href="#DejaVuSans-55" transform="translate(46.375 0)"/>
      <use xlink:href="#DejaVuSans-44" transform="translate(87.484375 0)"/>
      <use xlink:href="#DejaVuSans-4c" transform="translate(148.765625 0)"/>
      <use xlink:href="#DejaVuSans-51" transform="translate(176.546875 0)"/>
      <use xlink:href="#DejaVuSans-3" transform="translate(239.921875 0)"/>
      <use xlink:href="#DejaVuSans-4f" transform="translate(271.703125 0)"/>
      <use xlink:href="#DejaVuSans-52" transform="translate(299.484375 0)"/>
      <use xlink:href="#DejaVuSans-56" transform="translate(360.671875 0)"/>
      <use xlink:href="#DejaVuSans-56" transform="translate(412.765625 0)"/>
     </g>
    </g>
   </g>
   <g id="line2d_12">
    <path d="M 78.018601 36.147166 
L 79.088219 65.971917 
L 79.623027 71.758939 
L 80.157836 83.240926 
L 80.692645 97.244224 
L 81.227454 100.100647 
L 81.762263 110.171956 
L 82.297072 110.12263 
L 82.83188 120.575916 
L 83.366689 125.373392 
L 83.901498 127.009336 
L 84.436307 132.924737 
L 84.971116 143.106728 
L 85.505925 142.899762 
L 86.040734 137.299223 
L 86.575542 144.999523 
L 87.110351 140.354206 
L 87.64516 149.256871 
L 88.179969 147.891107 
L 88.714778 140.5216 
L 89.784395 159.996547 
L 90.319204 159.542345 
L 90.854013 156.359402 
L 91.388822 146.306207 
L 91.923631 155.864559 
L 92.45844 161.735557 
L 92.993249 161.217909 
L 93.528057 156.811421 
L 94.062866 163.451111 
L 94.597675 163.123197 
L 95.132484 158.594462 
L 95.667293 170.071711 
L 96.202102 168.802974 
L 96.73691 174.665611 
L 97.271719 173.612015 
L 97.806528 168.508967 
L 98.341337 167.428199 
L 98.876146 175.483677 
L 99.410955 173.322374 
L 99.945764 173.989673 
L 100.480572 177.986409 
L 101.015381 172.675558 
L 101.55019 175.041179 
L 102.084999 171.89256 
L 102.619808 180.742972 
L 103.154617 176.831466 
L 103.689425 182.93479 
L 104.224234 184.169574 
L 104.759043 183.078867 
L 105.293852 179.102847 
L 105.828661 185.491214 
L 106.36347 178.377025 
L 106.898278 187.237516 
L 107.433087 176.41052 
L 107.967896 192.005405 
L 108.502705 190.468578 
L 109.037514 193.273771 
L 109.572323 186.527486 
L 110.107132 184.511654 
L 110.64194 186.260278 
L 111.176749 191.307219 
L 111.711558 188.632124 
L 112.246367 187.692368 
L 112.781176 184.011981 
L 113.315985 182.157737 
L 113.850793 189.568395 
L 114.920411 199.346208 
L 115.45522 188.240253 
L 115.990029 189.450235 
L 116.524838 198.057638 
L 117.059647 191.918597 
L 117.594455 182.705483 
L 118.129264 196.965445 
L 118.664073 192.570847 
L 119.198882 195.148173 
L 119.733691 192.462998 
L 120.2685 186.282108 
L 120.803308 202.097801 
L 121.338117 195.943386 
L 121.872926 182.441573 
L 122.407735 199.14161 
L 122.942544 200.046252 
L 123.477353 195.25839 
L 124.012162 196.026804 
L 124.54697 192.532668 
L 125.081779 199.561302 
L 125.616588 199.262836 
L 126.151397 193.778228 
L 126.686206 194.084497 
L 127.221015 200.125351 
L 127.755823 203.210013 
L 128.290632 183.034093 
L 128.825441 188.94039 
L 129.36025 191.657891 
L 129.895059 183.333163 
L 130.429868 197.184023 
L 130.964677 201.57379 
L 131.499485 200.993485 
L 132.034294 188.293992 
L 132.569103 186.521308 
L 133.103912 198.673056 
L 133.638721 195.756252 
L 134.17353 201.302263 
L 134.708338 201.971977 
L 135.243147 194.752168 
L 135.777956 200.012857 
L 136.312765 190.456595 
L 136.847574 206.73996 
L 137.382383 192.289566 
L 137.917192 205.483438 
L 138.452 190.031887 
L 138.986809 205.26983 
L 139.521618 202.283541 
L 140.056427 194.12342 
L 141.126045 203.458317 
L 142.195662 196.056623 
L 142.730471 199.983224 
L 143.26528 194.835354 
L 143.800089 209.687372 
L 144.334898 195.203676 
L 144.869707 195.585793 
L 145.939324 204.928493 
L 146.474133 195.479941 
L 147.008942 203.296636 
L 147.543751 198.729582 
L 148.07856 201.634867 
L 148.613368 198.742355 
L 149.148177 184.632044 
L 150.217795 204.381166 
L 150.752604 197.085695 
L 151.287413 197.387924 
L 151.822221 207.307445 
L 152.35703 204.300999 
L 152.891839 192.807586 
L 153.426648 187.238956 
L 153.961457 198.163676 
L 154.496266 195.264429 
L 155.031075 201.848986 
L 155.565883 204.1219 
L 156.100692 208.197131 
L 156.635501 194.859646 
L 157.17031 193.914038 
L 157.705119 206.017993 
L 158.239928 204.599744 
L 158.774736 201.497292 
L 159.309545 200.400036 
L 159.844354 192.600062 
L 160.379163 208.999497 
L 160.913972 194.239026 
L 161.448781 211.263865 
L 161.98359 206.00522 
L 162.518398 204.230539 
L 163.053207 189.87146 
L 163.588016 205.229375 
L 164.122825 204.777634 
L 164.657634 196.382539 
L 165.192443 201.34504 
L 165.727251 211.309847 
L 166.26206 197.2366 
L 166.796869 198.417739 
L 167.331678 197.603436 
L 167.866487 200.132411 
L 168.401296 209.556439 
L 168.936105 199.444582 
L 169.470913 193.336846 
L 170.005722 203.987019 
L 170.540531 210.77794 
L 171.07534 200.705423 
L 171.610149 183.010684 
L 172.144958 205.014977 
L 172.679766 203.234351 
L 173.214575 189.578846 
L 174.284193 209.375994 
L 174.819002 196.444685 
L 175.88862 207.998014 
L 176.423428 196.988482 
L 176.958237 207.030669 
L 177.493046 204.951531 
L 178.027855 204.78567 
L 178.562664 190.299187 
L 179.097473 200.440584 
L 179.632281 200.360139 
L 180.16709 202.096547 
L 180.701899 201.108998 
L 181.236708 216.937696 
L 181.771517 200.339934 
L 182.306326 197.233953 
L 182.841135 196.947284 
L 183.375943 207.409535 
L 183.910752 209.564985 
L 184.445561 193.30986 
L 184.98037 204.287436 
L 185.515179 196.563031 
L 186.049988 209.739996 
L 186.584796 201.301102 
L 187.119605 206.049994 
L 187.654414 197.745098 
L 188.189223 208.342184 
L 188.724032 200.299108 
L 189.258841 207.644601 
L 189.79365 207.079949 
L 190.328458 205.386179 
L 190.863267 205.689986 
L 191.398076 206.338567 
L 191.932885 205.092496 
L 192.467694 205.138525 
L 193.002503 200.777323 
L 193.537311 207.578182 
L 194.07212 196.019094 
L 194.606929 202.073974 
L 195.141738 203.511823 
L 195.676547 204.506711 
L 196.211356 200.46966 
L 196.746164 203.796031 
L 197.280973 210.929077 
L 197.815782 195.71027 
L 198.350591 202.163802 
L 198.8854 198.58425 
L 199.420209 209.094713 
L 199.955018 210.105346 
L 200.489826 207.081714 
L 201.024635 193.782641 
L 201.559444 213.080208 
L 202.094253 207.935775 
L 202.629062 194.113666 
L 203.163871 207.810927 
L 203.698679 209.577897 
L 204.233488 207.911437 
L 204.768297 213.653592 
L 205.303106 193.993555 
L 205.837915 202.054559 
L 206.372724 203.431471 
L 207.442341 212.113978 
L 207.97715 201.757022 
L 208.511959 193.575163 
L 209.046768 208.646688 
L 209.581577 205.624543 
L 210.116386 201.680013 
L 210.651194 201.162226 
L 211.186003 200.418708 
L 211.720812 218.527287 
L 212.255621 210.160013 
L 212.79043 198.117229 
L 213.325239 205.496118 
L 213.860048 199.179882 
L 214.394856 207.397087 
L 214.929665 203.320556 
L 215.464474 205.654037 
L 215.999283 219.517437 
L 216.534092 211.819599 
L 217.068901 207.288959 
L 217.603709 206.47173 
L 218.138518 203.849351 
L 218.673327 197.660194 
L 219.208136 207.615804 
L 219.742945 200.565479 
L 220.277754 218.426591 
L 220.812563 204.310892 
L 221.347371 216.83203 
L 222.416989 198.079561 
L 222.951798 204.135509 
L 223.486607 195.641993 
L 224.021416 199.018852 
L 224.556224 206.374146 
L 225.091033 216.930915 
L 225.625842 206.65055 
L 226.160651 210.931074 
L 226.69546 204.232258 
L 227.230269 194.976181 
L 227.765078 202.390694 
L 228.299886 203.017399 
L 228.834695 205.328863 
L 229.369504 202.034959 
L 229.904313 209.825922 
L 230.439122 210.706969 
L 230.973931 204.350604 
L 231.508739 196.612868 
L 232.043548 202.772811 
L 232.578357 211.016072 
L 233.113166 208.504329 
L 233.647975 193.27967 
L 234.182784 209.576968 
L 234.717593 211.573199 
L 235.252401 203.236162 
L 235.78721 200.642395 
L 236.322019 218.86932 
L 236.856828 206.448042 
L 237.391637 209.312501 
L 237.926446 204.94605 
L 238.461254 201.67797 
L 238.996063 203.2592 
L 239.530872 209.606183 
L 240.065681 205.621849 
L 240.60049 213.937985 
L 241.135299 213.93752 
L 241.670107 210.984256 
L 242.204916 211.503762 
L 242.739725 217.10221 
L 243.274534 210.808269 
L 243.809343 207.216549 
L 244.344152 194.392207 
L 244.878961 209.675249 
L 245.413769 195.390763 
L 245.948578 217.113915 
L 246.483387 208.451844 
L 247.018196 196.151606 
L 247.553005 209.454163 
L 248.087814 195.323787 
L 248.622622 196.211755 
L 249.157431 214.166595 
L 249.69224 207.967591 
L 250.227049 206.750271 
L 250.761858 211.439387 
L 251.296667 196.253046 
L 251.831476 210.526292 
L 252.366284 202.238256 
L 252.901093 205.081999 
L 253.435902 194.568704 
L 253.970711 215.487585 
L 254.50552 207.662205 
L 255.040329 210.169813 
L 255.575137 201.56738 
L 256.109946 203.239878 
L 256.644755 215.892275 
L 257.179564 214.263762 
L 257.714373 205.902991 
L 258.249182 210.520997 
L 258.783991 201.013829 
L 259.318799 211.013053 
L 259.853608 177.854314 
L 260.388417 213.07064 
L 260.923226 206.330439 
L 261.458035 205.288269 
L 261.992844 195.2086 
L 262.527652 202.801654 
L 263.062461 222.559647 
L 263.59727 207.030669 
L 264.132079 209.755463 
L 264.666888 201.261483 
L 265.201697 214.51685 
L 265.736506 204.685298 
L 266.271314 199.847878 
L 266.806123 200.964549 
L 267.340932 213.703708 
L 267.875741 214.195903 
L 268.945359 197.100094 
L 269.480167 215.514431 
L 270.014976 216.848797 
L 270.549785 221.726626 
L 271.084594 191.386132 
L 271.619403 215.329295 
L 272.154212 219.6689 
L 272.689021 204.202718 
L 273.223829 216.229292 
L 273.758638 210.125736 
L 274.293447 202.02265 
L 274.828256 207.179206 
L 275.363065 205.221107 
L 275.897874 222.328064 
L 276.432682 213.327304 
L 276.967491 217.479125 
L 277.5023 201.013922 
L 278.571918 213.662603 
L 279.106727 221.002894 
L 279.641536 206.547763 
L 280.176344 209.638742 
L 280.711153 210.099075 
L 281.245962 208.167823 
L 281.780771 212.789359 
L 282.31558 224.493361 
L 282.850389 202.763103 
L 283.385197 209.795593 
L 283.920006 201.680942 
L 284.454815 213.634177 
L 284.989624 207.665734 
L 285.524433 204.308198 
L 286.059242 192.377908 
L 286.59405 212.850297 
L 287.128859 210.787322 
L 287.663668 213.910814 
L 288.198477 198.03121 
L 288.733286 210.862008 
L 289.268095 206.008378 
L 289.802904 202.761478 
L 290.337712 204.746794 
L 290.872521 216.325483 
L 291.40733 195.047523 
L 291.942139 215.427437 
L 292.476948 208.331129 
L 293.011757 207.109071 
L 293.546565 209.030245 
L 294.081374 202.524785 
L 294.616183 211.034418 
L 295.150992 205.885759 
L 295.685801 212.764649 
L 296.22061 213.601572 
L 296.755419 200.309976 
L 297.290227 204.590083 
L 297.825036 203.432307 
L 298.359845 207.664295 
L 298.894654 213.961719 
L 299.429463 204.346006 
L 299.964272 196.935022 
L 300.49908 210.267026 
L 301.033889 212.871755 
L 301.568698 218.290316 
L 302.103507 208.318357 
L 302.638316 208.334984 
L 303.173125 203.166771 
L 303.707934 204.97062 
L 304.242742 215.833891 
L 304.777551 196.801767 
L 305.31236 208.74901 
L 305.847169 217.637183 
L 306.381978 206.09867 
L 306.916787 217.724921 
L 307.451595 214.11072 
L 307.986404 214.091584 
L 308.521213 210.862844 
L 309.056022 223.807901 
L 309.590831 205.659749 
L 310.12564 217.83198 
L 310.660449 204.856547 
L 311.195257 210.787136 
L 311.730066 215.223675 
L 312.264875 203.337788 
L 312.799684 202.886048 
L 313.334493 210.79545 
L 313.869302 201.66176 
L 314.40411 211.920528 
L 314.938919 211.224757 
L 315.473728 205.120271 
L 316.008537 203.917535 
L 316.543346 217.776059 
L 317.078155 215.304632 
L 317.612964 213.599064 
L 318.682581 215.595574 
L 319.21739 217.7546 
L 319.752199 218.840848 
L 320.287008 206.445673 
L 320.821817 199.679184 
L 321.356625 206.123148 
L 321.891434 203.52246 
L 322.426243 215.543693 
L 322.961052 214.886426 
L 323.495861 207.508466 
L 324.03067 216.182241 
L 324.565479 207.470426 
L 325.100287 209.34362 
L 325.635096 207.079067 
L 326.169905 220.403639 
L 326.704714 209.726945 
L 327.239523 215.376392 
L 327.774332 204.572665 
L 328.30914 218.150465 
L 328.843949 196.278173 
L 329.378758 217.714842 
L 329.913567 217.944985 
L 330.448376 209.154907 
L 330.983185 225.921503 
L 331.517993 208.287191 
L 332.052802 212.764045 
L 332.587611 215.865522 
L 333.12242 207.857466 
L 333.657229 204.944285 
L 334.192038 207.174329 
L 334.726847 202.352515 
L 335.261655 209.993223 
L 335.796464 204.156828 
L 336.331273 220.015067 
L 336.866082 210.38528 
L 337.400891 219.229793 
L 337.9357 210.468976 
L 338.470508 198.085181 
L 339.005317 208.419006 
L 339.540126 205.687617 
L 340.074935 201.938721 
L 340.609744 211.767579 
L 341.144553 204.907267 
L 341.679362 200.987215 
L 342.21417 214.305053 
L 342.748979 208.157651 
L 343.283788 199.600039 
L 343.818597 208.670794 
L 344.353406 208.503679 
L 344.888215 213.656286 
L 345.423023 208.224767 
L 345.957832 207.274839 
L 346.492641 209.537767 
L 347.02745 204.159336 
L 347.562259 211.433627 
L 348.097068 223.66661 
L 348.631877 220.214834 
L 349.166685 208.656488 
L 349.701494 205.54131 
L 350.236303 196.321508 
L 350.771112 207.303868 
L 351.305921 214.190144 
L 351.84073 204.728029 
L 352.375538 216.35284 
L 352.910347 207.869914 
L 353.445156 209.234656 
L 353.979965 199.761859 
L 354.514774 213.418572 
L 355.049583 205.965322 
L 355.584392 218.246424 
L 356.1192 207.455703 
L 356.654009 210.103441 
L 357.188818 208.146086 
L 357.723627 211.139155 
L 358.258436 221.690491 
L 358.793245 212.09944 
L 359.328053 212.118065 
L 359.862862 199.608678 
L 360.397671 227.054569 
L 360.93248 216.666308 
L 361.467289 213.682761 
L 362.002098 206.973772 
L 362.536907 210.928566 
L 363.071715 210.576222 
L 363.606524 201.964917 
L 364.141333 209.641994 
L 364.676142 210.979379 
L 365.210951 214.841651 
L 365.74576 206.600527 
L 366.280568 214.250664 
L 366.815377 203.745404 
L 367.350186 209.283286 
L 367.884995 203.910707 
L 368.419804 214.696738 
L 368.954613 211.938874 
L 369.489422 221.875348 
L 370.02423 210.734558 
L 370.559039 218.614839 
L 371.093848 209.068377 
L 371.628657 205.325984 
L 372.163466 218.548374 
L 372.698275 204.907128 
L 373.233083 212.937059 
L 373.767892 206.792723 
L 374.302701 207.47038 
L 374.83751 203.122786 
L 375.372319 212.221223 
L 375.907128 209.225274 
L 376.441936 213.941236 
L 376.976745 209.702374 
L 377.511554 200.821726 
L 378.046363 207.364807 
L 379.115981 216.092646 
L 379.65079 215.735889 
L 380.185598 209.583749 
L 380.720407 208.140187 
L 381.255216 208.312597 
L 381.790025 201.539326 
L 382.324834 209.278409 
L 382.859643 199.341888 
L 383.394451 194.66392 
L 383.92926 213.243003 
L 384.464069 218.380655 
L 384.998878 202.112478 
L 385.533687 217.364727 
L 386.068496 212.353643 
L 386.603305 217.665005 
L 387.138113 218.346702 
L 387.672922 211.9771 
L 388.207731 223.170235 
L 388.74254 204.636019 
L 389.812158 220.913484 
L 390.346966 212.341009 
L 390.881775 219.010983 
L 391.416584 216.93909 
L 391.951393 214.405796 
L 392.486202 209.282032 
L 393.021011 212.371618 
L 394.090628 222.238793 
L 394.625437 217.069884 
L 395.160246 204.736576 
L 396.229864 214.717314 
L 396.764673 209.615751 
L 397.299481 198.831858 
L 397.83429 203.887531 
L 398.369099 204.249536 
L 398.903908 191.756266 
L 399.438717 199.005707 
L 399.973526 212.811421 
L 400.508335 212.416346 
L 401.043143 205.232069 
L 401.577952 204.607036 
L 402.112761 211.212077 
L 402.64757 208.960621 
L 403.182379 217.994451 
L 403.717188 223.948124 
L 404.251996 207.811066 
L 404.786805 205.021944 
L 405.321614 215.195621 
L 405.856423 212.074545 
L 406.391232 216.603931 
L 406.926041 203.456877 
L 407.46085 213.230324 
L 407.995658 194.146504 
L 408.530467 218.671736 
L 409.065276 211.169578 
L 409.600085 205.696024 
L 410.134894 209.416588 
L 410.669703 201.508532 
L 411.204511 203.575362 
L 412.274129 216.701979 
L 412.808938 204.618647 
L 413.343747 211.184348 
L 413.878556 199.339148 
L 414.413365 192.926814 
L 414.948173 211.360009 
L 415.482982 207.199038 
L 416.017791 214.33515 
L 416.5526 209.652212 
L 417.087409 208.375114 
L 417.622218 206.398995 
L 418.157026 211.503529 
L 418.691835 210.324109 
L 419.226644 206.319106 
L 419.761453 204.958126 
L 420.296262 212.879744 
L 420.831071 215.870538 
L 421.365879 219.877352 
L 421.900688 205.842424 
L 422.435497 207.967963 
L 422.970306 209.396012 
L 423.505115 211.569995 
L 424.039924 217.986834 
L 424.574733 206.781762 
L 425.109541 202.216333 
L 425.64435 199.612951 
L 426.179159 205.54131 
L 426.713968 219.864904 
L 427.248777 213.117969 
L 427.783586 214.812158 
L 428.318394 221.20006 
L 428.853203 204.661239 
L 429.388012 206.673587 
L 429.922821 211.740733 
L 430.45763 200.806259 
L 430.992439 218.07406 
L 431.527248 208.183243 
L 432.062056 205.6519 
L 432.596865 221.117664 
L 433.131674 212.360192 
L 433.666483 211.683464 
L 434.201292 201.627064 
L 434.736101 217.562358 
L 435.270909 206.664344 
L 435.805718 210.757921 
L 436.340527 201.424371 
L 436.875336 213.786429 
L 437.944954 217.693198 
L 438.479763 212.260424 
L 439.014571 235.798015 
L 439.54938 200.65814 
L 440.618998 216.552375 
L 441.153807 209.371117 
L 441.688616 217.142573 
L 442.223424 201.606349 
L 442.758233 208.461041 
L 443.293042 207.822492 
L 443.827851 211.333767 
L 444.36266 226.483368 
L 444.897469 211.524198 
L 445.432278 209.876874 
L 445.967086 206.088731 
L 446.501895 207.940652 
L 447.571513 228.870541 
L 448.106322 231.402767 
L 448.641131 208.520492 
L 449.175939 212.456058 
L 449.710748 197.980119 
L 450.245557 199.3986 
L 450.780366 213.888751 
L 451.315175 212.422384 
L 451.849984 213.661627 
L 452.384793 218.915442 
L 452.919601 217.362033 
L 453.45441 212.593261 
L 453.989219 209.744594 
L 454.524028 216.890832 
L 455.058837 208.728388 
L 455.593646 220.519802 
L 456.128454 200.774396 
L 456.663263 223.255465 
L 457.198072 217.557202 
L 457.732881 214.218709 
L 458.26769 203.596682 
L 458.802499 207.553241 
L 459.337308 195.035307 
L 459.872116 211.506781 
L 460.406925 216.209831 
L 460.941734 218.500998 
L 462.011352 201.183452 
L 462.546161 207.475582 
L 463.080969 203.253905 
L 463.615778 211.200837 
L 464.150587 207.816918 
L 464.685396 211.671666 
L 465.220205 220.647809 
L 465.755014 201.089955 
L 466.289822 222.943854 
L 466.824631 202.427851 
L 467.35944 209.270281 
L 467.894249 196.375015 
L 468.429058 210.348122 
L 468.963867 210.657643 
L 469.498676 204.886366 
L 470.033484 216.743596 
L 470.568293 204.838433 
L 471.103102 210.776546 
L 471.637911 199.243329 
L 472.17272 204.182838 
L 472.707529 214.412763 
L 473.242337 227.923587 
L 473.777146 209.954673 
L 474.311955 198.776679 
L 474.846764 214.297807 
L 475.381573 216.4527 
L 475.916382 211.046866 
L 476.451191 221.046415 
L 476.985999 208.937537 
L 477.520808 216.647451 
L 478.055617 212.795165 
L 478.590426 207.353148 
L 479.125235 223.764938 
L 479.660044 213.981413 
L 480.194852 211.783371 
L 480.729661 207.127418 
L 481.26447 192.253756 
L 481.799279 216.725946 
L 482.868897 205.649392 
L 483.403706 202.479268 
L 483.938514 208.370098 
L 484.473323 227.60682 
L 485.008132 205.723892 
L 485.542941 202.568538 
L 486.07775 195.918026 
L 486.612559 225.293684 
L 487.682176 208.015849 
L 488.751794 218.178101 
L 489.286603 211.453414 
L 489.821412 211.472085 
L 490.356221 207.035407 
L 490.891029 211.703111 
L 491.425838 211.438365 
L 491.960647 209.365497 
L 492.495456 217.730402 
L 493.030265 212.144075 
L 493.565074 218.464305 
L 494.099882 203.344244 
L 494.634691 204.619762 
L 495.704309 195.198335 
L 496.239118 205.083486 
L 496.773927 201.129063 
L 497.308736 219.928583 
L 497.843544 210.034468 
L 498.378353 209.452213 
L 498.913162 210.747006 
L 499.447971 200.637983 
L 499.98278 216.692272 
L 500.517589 206.664437 
L 501.052397 209.728013 
L 501.587206 214.393952 
L 502.122015 210.564749 
L 502.656824 220.861696 
L 503.191633 213.219734 
L 503.726442 224.23038 
L 504.261251 220.636755 
L 504.796059 211.820667 
L 505.330868 211.427682 
L 505.865677 218.632767 
L 506.400486 221.799036 
L 506.935295 203.958733 
L 507.470104 200.190608 
L 508.004912 210.526942 
L 508.539721 205.806846 
L 509.07453 214.97486 
L 509.609339 211.216117 
L 510.144148 217.616375 
L 510.678957 214.46692 
L 511.213765 212.551088 
L 511.748574 217.388136 
L 512.283383 208.107396 
L 512.818192 211.258198 
L 513.353001 209.571116 
L 513.88781 212.939335 
L 514.422619 217.541131 
L 514.957427 202.502955 
L 515.492236 211.279471 
L 516.027045 201.723766 
L 516.561854 203.073088 
L 517.096663 214.532456 
L 517.631472 212.744445 
L 518.16628 206.826815 
L 518.701089 219.039501 
L 519.235898 211.752437 
L 519.770707 208.984541 
L 520.305516 212.246305 
L 520.840325 201.913408 
L 521.375134 199.725213 
L 521.909942 217.669138 
L 522.444751 199.850619 
L 522.97956 211.0621 
L 523.514369 216.701654 
L 524.049178 210.985324 
L 524.583987 220.627512 
L 525.118795 220.311628 
L 525.653604 208.443484 
L 526.188413 218.721016 
L 526.723222 207.89049 
L 527.258031 208.134521 
L 527.79284 209.816958 
L 528.327649 229.175649 
L 528.862457 184.862048 
L 529.397266 206.019665 
L 529.932075 211.860379 
L 530.466884 209.750168 
L 531.001693 206.590587 
L 531.536502 211.330562 
L 532.07131 207.129926 
L 532.606119 211.076499 
L 533.140928 217.293524 
L 533.675737 210.680727 
L 534.210546 218.10504 
L 534.745355 208.156304 
L 535.280164 203.168629 
L 535.814972 227.39781 
L 536.349781 202.747776 
L 536.88459 211.646817 
L 537.419399 210.373018 
L 537.954208 234.848273 
L 538.489017 213.800549 
L 539.023825 206.620592 
L 539.558634 211.190618 
L 540.093443 212.910538 
L 540.628252 215.216058 
L 541.163061 206.403593 
L 541.69787 222.716544 
L 542.232679 209.986628 
L 542.767487 206.734479 
L 543.302296 208.089932 
L 543.837105 203.172113 
L 544.371914 207.515201 
L 544.906723 208.276787 
L 545.441532 211.91853 
L 545.97634 221.371123 
L 546.511149 217.140993 
L 547.045958 211.199908 
L 547.580767 210.99963 
L 548.115576 206.177072 
L 548.650385 208.639675 
L 549.185194 212.896047 
L 549.720002 198.237108 
L 550.254811 210.339762 
L 550.78962 212.861398 
L 551.324429 214.036452 
L 551.859238 211.949743 
L 552.394047 206.193375 
L 552.928855 210.539901 
L 553.463664 206.710466 
L 553.998473 208.450544 
L 554.533282 211.575104 
L 555.068091 208.437817 
L 555.6029 223.521743 
L 556.137708 226.808727 
L 556.672517 210.858803 
L 557.207326 211.000048 
L 557.742135 203.702255 
L 558.276944 214.374073 
L 558.811753 208.569401 
L 559.346562 195.702003 
L 560.416179 217.051398 
L 560.950988 202.716378 
L 561.485797 217.031751 
L 562.020606 209.103816 
L 562.555415 207.913481 
L 563.090223 213.588427 
L 563.625032 203.314054 
L 564.159841 215.82646 
L 564.69465 206.588543 
L 565.229459 214.035662 
L 565.764268 215.893204 
L 566.299077 201.990556 
L 566.833885 212.415556 
L 567.368694 208.002333 
L 567.903503 218.222643 
L 568.438312 194.933775 
L 568.973121 199.604916 
L 569.50793 233.406569 
L 570.042738 205.529467 
L 570.577547 219.453805 
L 571.112356 216.354605 
L 571.647165 219.411492 
L 572.181974 220.180695 
L 572.716783 220.038522 
L 573.251592 214.917174 
L 573.7864 213.739611 
L 574.321209 211.428657 
L 574.856018 199.346069 
L 575.925636 212.631022 
L 576.460445 212.593586 
L 576.995253 214.659255 
L 577.530062 206.385897 
L 578.064871 206.312139 
L 578.59968 206.638984 
L 579.134489 220.526351 
L 579.669298 222.778736 
L 580.204107 206.984501 
L 580.738915 214.273794 
L 581.273724 215.225208 
L 581.808533 210.26554 
L 582.343342 219.672569 
L 582.878151 206.671822 
L 583.41296 211.101255 
L 583.947768 200.693997 
L 584.482577 216.040904 
L 585.017386 201.446154 
L 585.552195 201.293902 
L 586.087004 210.433166 
L 586.621813 216.565194 
L 587.156622 209.93275 
L 587.69143 206.615204 
L 588.226239 215.001149 
L 588.761048 218.565373 
L 589.295857 208.392485 
L 589.830666 191.408844 
L 590.365475 195.886721 
L 590.900283 216.227062 
L 591.435092 208.833171 
L 591.969901 221.802195 
L 592.50471 205.77503 
L 593.039519 201.447734 
L 593.574328 218.571226 
L 594.109137 200.352382 
L 594.643945 209.56963 
L 595.178754 224.65258 
L 595.713563 221.876277 
L 596.248372 219.808704 
L 596.783181 215.319634 
L 597.31799 209.407206 
L 597.852798 211.320808 
L 598.387607 207.783337 
L 598.922416 215.39432 
L 599.457225 199.430973 
L 599.992034 210.578869 
L 600.526843 206.29305 
L 601.061651 222.943389 
L 602.131269 204.366256 
L 602.666078 215.064967 
L 603.200887 208.827133 
L 603.735696 207.498619 
L 604.270505 210.042085 
L 604.805313 201.01787 
L 605.340122 211.437157 
L 605.874931 204.869413 
L 606.40974 208.007025 
L 606.944549 209.847195 
L 607.479358 216.956693 
L 608.014166 214.742255 
L 608.548975 215.189862 
L 609.083784 205.24029 
L 609.618593 216.749355 
L 610.153402 215.123722 
L 610.688211 214.095068 
L 611.22302 218.583116 
L 611.757828 196.931678 
L 612.292637 209.663266 
L 612.827446 208.979989 
L 613.362255 223.602235 
L 613.897064 201.337887 
L 614.431873 214.538633 
L 614.966681 198.90673 
L 615.50149 204.694123 
L 616.571108 206.88622 
L 617.105917 222.516219 
L 617.640726 208.189606 
L 618.175535 209.887557 
L 618.710343 204.276986 
L 619.245152 222.144971 
L 619.779961 205.121944 
L 620.31477 213.20292 
L 620.849579 214.387542 
L 621.384388 212.476076 
L 621.919196 216.553815 
L 622.454005 211.794193 
L 622.988814 205.538059 
L 623.523623 209.338325 
L 624.058432 222.865777 
L 625.12805 210.426292 
L 625.662858 213.73348 
L 626.197667 226.237944 
L 626.732476 235.89049 
L 627.267285 205.51674 
L 627.802094 209.699866 
L 628.336903 210.996936 
L 628.871711 218.266675 
L 629.40652 207.533129 
L 629.941329 202.284285 
L 630.476138 212.594515 
L 631.010947 206.771868 
L 631.545756 206.911534 
L 632.080565 207.278787 
L 632.615373 208.039491 
L 633.150182 218.786088 
L 633.684991 204.244705 
L 634.2198 217.70532 
L 634.754609 209.557925 
L 635.289418 208.06067 
L 635.824226 222.811992 
L 636.359035 207.175536 
L 636.893844 223.479709 
L 637.428653 220.513718 
L 637.963462 205.748277 
L 638.498271 213.038778 
L 639.03308 235.164622 
L 639.567888 204.31823 
L 640.102697 223.942132 
L 640.637506 217.82924 
L 641.172315 220.613903 
L 641.707124 208.110647 
L 642.241933 208.695875 
L 642.776741 224.384537 
L 643.31155 205.216277 
L 643.846359 224.989876 
L 644.915977 209.339486 
L 645.450786 205.246421 
L 645.985594 207.399316 
L 646.520403 202.532914 
L 647.055212 211.182629 
L 647.590021 202.491483 
L 648.12483 218.596771 
L 648.659639 200.017594 
L 649.729256 212.06154 
L 650.264065 204.278008 
L 651.333683 213.031346 
L 651.868492 207.28803 
L 652.403301 213.04031 
L 653.472918 218.619902 
L 654.542536 208.138933 
L 655.077345 213.247416 
L 655.612154 202.84615 
L 656.146963 210.401722 
L 656.681771 207.335917 
L 657.21658 212.057127 
L 657.751389 220.719337 
L 658.286198 204.662168 
L 658.821007 207.023749 
L 659.355816 205.649438 
L 659.890624 208.035729 
L 660.425433 215.527622 
L 660.960242 196.999955 
L 661.495051 211.270507 
L 662.02986 213.805101 
L 662.564669 218.049397 
L 663.634286 208.02983 
L 664.169095 199.104778 
L 664.703904 202.43087 
L 665.238713 217.470207 
L 665.773522 219.508937 
L 666.308331 211.58509 
L 666.843139 215.904119 
L 667.377948 229.043137 
L 667.912757 208.683613 
L 668.447566 200.343743 
L 668.982375 208.555513 
L 669.517184 208.736377 
L 670.586801 214.100548 
L 671.12161 210.197821 
L 671.656419 214.509697 
L 672.191228 212.59628 
L 673.260846 196.943429 
L 673.795654 212.756335 
L 674.330463 220.334527 
L 674.865272 210.642501 
L 675.400081 211.121924 
L 675.93489 214.683733 
L 676.469699 206.914088 
L 677.004508 214.202452 
L 677.539316 208.514965 
L 678.074125 210.230612 
L 678.608934 214.470496 
L 679.143743 229.482058 
L 679.143743 229.482058 
" clip-path="url(#pb395c5d138)" style="fill: none; stroke: #1f77b4; stroke-width: 1.5; stroke-linecap: square"/>
   </g>
   <g id="patch_3">
    <path d="M 47.962344 245.877656 
L 47.962344 26.16 
" style="fill: none; stroke: #000000; stroke-width: 0.8; stroke-linejoin: miter; stroke-linecap: square"/>
   </g>
   <g id="patch_4">
    <path d="M 709.2 245.877656 
L 709.2 26.16 
" style="fill: none; stroke: #000000; stroke-width: 0.8; stroke-linejoin: miter; stroke-linecap: square"/>
   </g>
   <g id="patch_5">
    <path d="M 47.962344 245.877656 
L 709.2 245.877656 
" style="fill: none; stroke: #000000; stroke-width: 0.8; stroke-linejoin: miter; stroke-linecap: square"/>
   </g>
   <g id="patch_6">
    <path d="M 47.962344 26.16 
L 709.2 26.16 
" style="fill: none; stroke: #000000; stroke-width: 0.8; stroke-linejoin: miter; stroke-linecap: square"/>
   </g>
   <g id="text_14">
    <!-- Train loss over steps (n=1125) -->
    <g transform="translate(286.701484 20.16) scale(0.12 -0.12)">
     <defs>
      <path id="DejaVuSans-59" d="M 191 3500 
L 800 3500 
L 1894 563 
L 2988 3500 
L 3597 3500 
L 2284 0 
L 1503 0 
L 191 3500 
z
" transform="scale(0.015625)"/>
      <path id="DejaVuSans-b" d="M 1984 4856 
Q 1566 4138 1362 3434 
Q 1159 2731 1159 2009 
Q 1159 1288 1364 580 
Q 1569 -128 1984 -844 
L 1484 -844 
Q 1016 -109 783 600 
Q 550 1309 550 2009 
Q 550 2706 781 3412 
Q 1013 4119 1484 4856 
L 1984 4856 
z
" transform="scale(0.015625)"/>
      <path id="DejaVuSans-20" d="M 678 2906 
L 4684 2906 
L 4684 2381 
L 678 2381 
L 678 2906 
z
M 678 1631 
L 4684 1631 
L 4684 1100 
L 678 1100 
L 678 1631 
z
" transform="scale(0.015625)"/>
      <path id="DejaVuSans-18" d="M 691 4666 
L 3169 4666 
L 3169 4134 
L 1269 4134 
L 1269 2991 
Q 1406 3038 1543 3061 
Q 1681 3084 1819 3084 
Q 2600 3084 3056 2656 
Q 3513 2228 3513 1497 
Q 3513 744 3044 326 
Q 2575 -91 1722 -91 
Q 1428 -91 1123 -41 
Q 819 9 494 109 
L 494 744 
Q 775 591 1075 516 
Q 1375 441 1709 441 
Q 2250 441 2565 725 
Q 2881 1009 2881 1497 
Q 2881 1984 2565 2268 
Q 2250 2553 1709 2553 
Q 1456 2553 1204 2497 
Q 953 2441 691 2322 
L 691 4666 
z
" transform="scale(0.015625)"/>
      <path id="DejaVuSans-c" d="M 513 4856 
L 1013 4856 
Q 1481 4119 1714 3412 
Q 1947 2706 1947 2009 
Q 1947 1309 1714 600 
Q 1481 -109 1013 -844 
L 513 -844 
Q 928 -128 1133 580 
Q 1338 1288 1338 2009 
Q 1338 2731 1133 3434 
Q 928 4138 513 4856 
z
" transform="scale(0.015625)"/>
     </defs>
     <use xlink:href="#DejaVuSans-37"/>
     <use xlink:href="#DejaVuSans-55" transform="translate(46.375 0)"/>
     <use xlink:href="#DejaVuSans-44" transform="translate(87.484375 0)"/>
     <use xlink:href="#DejaVuSans-4c" transform="translate(148.765625 0)"/>
     <use xlink:href="#DejaVuSans-51" transform="translate(176.546875 0)"/>
     <use xlink:href="#DejaVuSans-3" transform="translate(239.921875 0)"/>
     <use xlink:href="#DejaVuSans-4f" transform="translate(271.703125 0)"/>
     <use xlink:href="#DejaVuSans-52" transform="translate(299.484375 0)"/>
     <use xlink:href="#DejaVuSans-56" transform="translate(360.671875 0)"/>
     <use xlink:href="#DejaVuSans-56" transform="translate(412.765625 0)"/>
     <use xlink:href="#DejaVuSans-3" transform="translate(464.859375 0)"/>
     <use xlink:href="#DejaVuSans-52" transform="translate(496.640625 0)"/>
     <use xlink:href="#DejaVuSans-59" transform="translate(557.828125 0)"/>
     <use xlink:href="#DejaVuSans-48" transform="translate(617.015625 0)"/>
     <use xlink:href="#DejaVuSans-55" transform="translate(678.546875 0)"/>
     <use xlink:href="#DejaVuSans-3" transform="translate(719.65625 0)"/>
     <use xlink:href="#DejaVuSans-56" transform="translate(751.4375 0)"/>
     <use xlink:href="#DejaVuSans-57" transform="translate(803.53125 0)"/>
     <use xlink:href="#DejaVuSans-48" transform="translate(842.734375 0)"/>
     <use xlink:href="#DejaVuSans-53" transform="translate(904.265625 0)"/>
     <use xlink:href="#DejaVuSans-56" transform="translate(967.75 0)"/>
     <use xlink:href="#DejaVuSans-3" transform="translate(1019.84375 0)"/>
     <use xlink:href="#DejaVuSans-b" transform="translate(1051.625 0)"/>
     <use xlink:href="#DejaVuSans-51" transform="translate(1090.640625 0)"/>
     <use xlink:href="#DejaVuSans-20" transform="translate(1154.015625 0)"/>
     <use xlink:href="#DejaVuSans-14" transform="translate(1237.8125 0)"/>
     <use xlink:href="#DejaVuSans-14" transform="translate(1301.4375 0)"/>
     <use xlink:href="#DejaVuSans-15" transform="translate(1365.0625 0)"/>
     <use xlink:href="#DejaVuSans-18" transform="translate(1428.6875 0)"/>
     <use xlink:href="#DejaVuSans-c" transform="translate(1492.3125 0)"/>
    </g>
   </g>
  </g>
 </g>
 <defs>
  <clipPath id="pb395c5d138">
   <rect x="47.962344" y="26.16" width="661.237656" height="219.717656"/>
  </clipPath>
 </defs>
</svg>
