<?xml version="1.0" encoding="utf-8" standalone="no"?>
<!DOCTYPE svg PUBLIC "-//W3C//DTD SVG 1.1//EN"
  "http://www.w3.org/Graphics/SVG/1.1/DTD/svg11.dtd">
<svg xmlns:xlink="http://www.w3.org/1999/xlink" width="720pt" height="288pt" viewBox="0 0 720 288" xmlns="http://www.w3.org/2000/svg" version="1.1">
 <metadata>
  <rdf:RDF xmlns:dc="http://purl.org/dc/elements/1.1/" xmlns:cc="http://creativecommons.org/ns#" xmlns:rdf="http://www.w3.org/1999/02/22-rdf-syntax-ns#">
   <cc:Work>
    <dc:type rdf:resource="http://purl.org/dc/dcmitype/StillImage"/>
    <dc:date>2026-06-14T09:57:28.730060</dc:date>
    <dc:format>image/svg+xml</dc:format>
    <dc:creator>
     <cc:Agent>
      <dc:title>Matplotlib v3.11.0, https://matplotlib.org/</dc:title>
     </cc:Agent>
    </dc:creator>
   </cc:Work>
  </rdf:RDF>
 </metadata>
 <defs>
  <style type="text/css">*{stroke-linejoin: round; stroke-linecap: butt}</style>
 </defs>
 <g id="figure_1">
  <g id="patch_1">
   <path d="M 0 288 
L 720 288 
L 720 0 
L 0 0 
z
" style="fill: #ffffff"/>
  </g>
  <g id="axes_1">
   <g id="patch_2">
    <path d="M 47.962344 245.877656 
L 709.2 245.877656 
L 709.2 26.16 
L 47.962344 26.16 
z
" style="fill: #ffffff"/>
   </g>
   <g id="matplotlib.axis_1">
    <g id="xtick_1">
     <g id="line2d_1">
      <defs>
       <path id="m72fa0ebea3" d="M 0 0 
L 0 3.5 
" style="stroke: #000000; stroke-width: 0.8"/>
      </defs>
      <g>
       <use xlink:href="#m72fa0ebea3" x="78.018601" y="245.877656" style="stroke: #000000; stroke-width: 0.8"/>
      </g>
     </g>
     <g id="text_1">
      <!-- 0 -->
      <g transform="translate(74.837351 260.475312) scale(0.1 -0.1)">
       <defs>
        <path id="DejaVuSans-13" d="M 2034 4250 
Q 1547 4250 1301 3770 
Q 1056 3291 1056 2328 
Q 1056 1369 1301 889 
Q 1547 409 2034 409 
Q 2525 409 2770 889 
Q 3016 1369 3016 2328 
Q 3016 3291 2770 3770 
Q 2525 4250 2034 4250 
z
M 2034 4750 
Q 2819 4750 3233 4129 
Q 3647 3509 3647 2328 
Q 3647 1150 3233 529 
Q 2819 -91 2034 -91 
Q 1250 -91 836 529 
Q 422 1150 422 2328 
Q 422 3509 836 4129 
Q 1250 4750 2034 4750 
z
" transform="scale(0.015625)"/>
       </defs>
       <use xlink:href="#DejaVuSans-13"/>
      </g>
     </g>
    </g>
    <g id="xtick_2">
     <g id="line2d_2">
      <g>
       <use xlink:href="#m72fa0ebea3" x="211.661363" y="245.877656" style="stroke: #000000; stroke-width: 0.8"/>
      </g>
     </g>
     <g id="text_2">
      <!-- 500 -->
      <g transform="translate(202.117613 260.475312) scale(0.1 -0.1)">
       <defs>
        <path id="DejaVuSans-18" d="M 691 4666 
L 3169 4666 
L 3169 4134 
L 1269 4134 
L 1269 2991 
Q 1406 3038 1543 3061 
Q 1681 3084 1819 3084 
Q 2600 3084 3056 2656 
Q 3513 2228 3513 1497 
Q 3513 744 3044 326 
Q 2575 -91 1722 -91 
Q 1428 -91 1123 -41 
Q 819 9 494 109 
L 494 744 
Q 775 591 1075 516 
Q 1375 441 1709 441 
Q 2250 441 2565 725 
Q 2881 1009 2881 1497 
Q 2881 1984 2565 2268 
Q 2250 2553 1709 2553 
Q 1456 2553 1204 2497 
Q 953 2441 691 2322 
L 691 4666 
z
" transform="scale(0.015625)"/>
       </defs>
       <use xlink:href="#DejaVuSans-18"/>
       <use xlink:href="#DejaVuSans-13" transform="translate(63.625 0)"/>
       <use xlink:href="#DejaVuSans-13" transform="translate(127.25 0)"/>
      </g>
     </g>
    </g>
    <g id="xtick_3">
     <g id="line2d_3">
      <g>
       <use xlink:href="#m72fa0ebea3" x="345.304124" y="245.877656" style="stroke: #000000; stroke-width: 0.8"/>
      </g>
     </g>
     <g id="text_3">
      <!-- 1000 -->
      <g transform="translate(332.579124 260.475312) scale(0.1 -0.1)">
       <defs>
        <path id="DejaVuSans-14" d="M 794 531 
L 1825 531 
L 1825 4091 
L 703 3866 
L 703 4441 
L 1819 4666 
L 2450 4666 
L 2450 531 
L 3481 531 
L 3481 0 
L 794 0 
L 794 531 
z
" transform="scale(0.015625)"/>
       </defs>
       <use xlink:href="#DejaVuSans-14"/>
       <use xlink:href="#DejaVuSans-13" transform="translate(63.625 0)"/>
       <use xlink:href="#DejaVuSans-13" transform="translate(127.25 0)"/>
       <use xlink:href="#DejaVuSans-13" transform="translate(190.875 0)"/>
      </g>
     </g>
    </g>
    <g id="xtick_4">
     <g id="line2d_4">
      <g>
       <use xlink:href="#m72fa0ebea3" x="478.946886" y="245.877656" style="stroke: #000000; stroke-width: 0.8"/>
      </g>
     </g>
     <g id="text_4">
      <!-- 1500 -->
      <g transform="translate(466.221886 260.475312) scale(0.1 -0.1)">
       <use xlink:href="#DejaVuSans-14"/>
       <use xlink:href="#DejaVuSans-18" transform="translate(63.625 0)"/>
       <use xlink:href="#DejaVuSans-13" transform="translate(127.25 0)"/>
       <use xlink:href="#DejaVuSans-13" transform="translate(190.875 0)"/>
      </g>
     </g>
    </g>
    <g id="xtick_5">
     <g id="line2d_5">
      <g>
       <use xlink:href="#m72fa0ebea3" x="612.589648" y="245.877656" style="stroke: #000000; stroke-width: 0.8"/>
      </g>
     </g>
     <g id="text_5">
      <!-- 2000 -->
      <g transform="translate(599.864648 260.475312) scale(0.1 -0.1)">
       <defs>
        <path id="DejaVuSans-15" d="M 1228 531 
L 3431 531 
L 3431 0 
L 469 0 
L 469 531 
Q 828 903 1448 1529 
Q 2069 2156 2228 2338 
Q 2531 2678 2651 2914 
Q 2772 3150 2772 3378 
Q 2772 3750 2511 3984 
Q 2250 4219 1831 4219 
Q 1534 4219 1204 4116 
Q 875 4013 500 3803 
L 500 4441 
Q 881 4594 1212 4672 
Q 1544 4750 1819 4750 
Q 2544 4750 2975 4387 
Q 3406 4025 3406 3419 
Q 3406 3131 3298 2873 
Q 3191 2616 2906 2266 
Q 2828 2175 2409 1742 
Q 1991 1309 1228 531 
z
" transform="scale(0.015625)"/>
       </defs>
       <use xlink:href="#DejaVuSans-15"/>
       <use xlink:href="#DejaVuSans-13" transform="translate(63.625 0)"/>
       <use xlink:href="#DejaVuSans-13" transform="translate(127.25 0)"/>
       <use xlink:href="#DejaVuSans-13" transform="translate(190.875 0)"/>
      </g>
     </g>
    </g>
    <g id="text_6">
     <!-- Training step -->
     <g transform="translate(346.448359 274.476094) scale(0.1 -0.1)">
      <defs>
       <path id="DejaVuSans-37" d="M -19 4666 
L 3928 4666 
L 3928 4134 
L 2272 4134 
L 2272 0 
L 1638 0 
L 1638 4134 
L -19 4134 
L -19 4666 
z
" transform="scale(0.015625)"/>
       <path id="DejaVuSans-55" d="M 2631 2963 
Q 2534 3019 2420 3045 
Q 2306 3072 2169 3072 
Q 1681 3072 1420 2755 
Q 1159 2438 1159 1844 
L 1159 0 
L 581 0 
L 581 3500 
L 1159 3500 
L 1159 2956 
Q 1341 3275 1631 3429 
Q 1922 3584 2338 3584 
Q 2397 3584 2469 3576 
Q 2541 3569 2628 3553 
L 2631 2963 
z
" transform="scale(0.015625)"/>
       <path id="DejaVuSans-44" d="M 2194 1759 
Q 1497 1759 1228 1600 
Q 959 1441 959 1056 
Q 959 750 1161 570 
Q 1363 391 1709 391 
Q 2188 391 2477 730 
Q 2766 1069 2766 1631 
L 2766 1759 
L 2194 1759 
z
M 3341 1997 
L 3341 0 
L 2766 0 
L 2766 531 
Q 2569 213 2275 61 
Q 1981 -91 1556 -91 
Q 1019 -91 701 211 
Q 384 513 384 1019 
Q 384 1609 779 1909 
Q 1175 2209 1959 2209 
L 2766 2209 
L 2766 2266 
Q 2766 2663 2505 2880 
Q 2244 3097 1772 3097 
Q 1472 3097 1187 3025 
Q 903 2953 641 2809 
L 641 3341 
Q 956 3463 1253 3523 
Q 1550 3584 1831 3584 
Q 2591 3584 2966 3190 
Q 3341 2797 3341 1997 
z
" transform="scale(0.015625)"/>
       <path id="DejaVuSans-4c" d="M 603 3500 
L 1178 3500 
L 1178 0 
L 603 0 
L 603 3500 
z
M 603 4863 
L 1178 4863 
L 1178 4134 
L 603 4134 
L 603 4863 
z
" transform="scale(0.015625)"/>
       <path id="DejaVuSans-51" d="M 3513 2113 
L 3513 0 
L 2938 0 
L 2938 2094 
Q 2938 2591 2744 2837 
Q 2550 3084 2163 3084 
Q 1697 3084 1428 2787 
Q 1159 2491 1159 1978 
L 1159 0 
L 581 0 
L 581 3500 
L 1159 3500 
L 1159 2956 
Q 1366 3272 1645 3428 
Q 1925 3584 2291 3584 
Q 2894 3584 3203 3211 
Q 3513 2838 3513 2113 
z
" transform="scale(0.015625)"/>
       <path id="DejaVuSans-4a" d="M 2906 1791 
Q 2906 2416 2648 2759 
Q 2391 3103 1925 3103 
Q 1463 3103 1205 2759 
Q 947 2416 947 1791 
Q 947 1169 1205 825 
Q 1463 481 1925 481 
Q 2391 481 2648 825 
Q 2906 1169 2906 1791 
z
M 3481 434 
Q 3481 -459 3084 -895 
Q 2688 -1331 1869 -1331 
Q 1566 -1331 1297 -1286 
Q 1028 -1241 775 -1147 
L 775 -588 
Q 1028 -725 1275 -790 
Q 1522 -856 1778 -856 
Q 2344 -856 2625 -561 
Q 2906 -266 2906 331 
L 2906 616 
Q 2728 306 2450 153 
Q 2172 0 1784 0 
Q 1141 0 747 490 
Q 353 981 353 1791 
Q 353 2603 747 3093 
Q 1141 3584 1784 3584 
Q 2172 3584 2450 3431 
Q 2728 3278 2906 2969 
L 2906 3500 
L 3481 3500 
L 3481 434 
z
" transform="scale(0.015625)"/>
       <path id="DejaVuSans-3" transform="scale(0.015625)"/>
       <path id="DejaVuSans-56" d="M 2834 3397 
L 2834 2853 
Q 2591 2978 2328 3040 
Q 2066 3103 1784 3103 
Q 1356 3103 1142 2972 
Q 928 2841 928 2578 
Q 928 2378 1081 2264 
Q 1234 2150 1697 2047 
L 1894 2003 
Q 2506 1872 2764 1633 
Q 3022 1394 3022 966 
Q 3022 478 2636 193 
Q 2250 -91 1575 -91 
Q 1294 -91 989 -36 
Q 684 19 347 128 
L 347 722 
Q 666 556 975 473 
Q 1284 391 1588 391 
Q 1994 391 2212 530 
Q 2431 669 2431 922 
Q 2431 1156 2273 1281 
Q 2116 1406 1581 1522 
L 1381 1569 
Q 847 1681 609 1914 
Q 372 2147 372 2553 
Q 372 3047 722 3315 
Q 1072 3584 1716 3584 
Q 2034 3584 2315 3537 
Q 2597 3491 2834 3397 
z
" transform="scale(0.015625)"/>
       <path id="DejaVuSans-57" d="M 1172 4494 
L 1172 3500 
L 2356 3500 
L 2356 3053 
L 1172 3053 
L 1172 1153 
Q 1172 725 1289 603 
Q 1406 481 1766 481 
L 2356 481 
L 2356 0 
L 1766 0 
Q 1100 0 847 248 
Q 594 497 594 1153 
L 594 3053 
L 172 3053 
L 172 3500 
L 594 3500 
L 594 4494 
L 1172 4494 
z
" transform="scale(0.015625)"/>
       <path id="DejaVuSans-48" d="M 3597 1894 
L 3597 1613 
L 953 1613 
Q 991 1019 1311 708 
Q 1631 397 2203 397 
Q 2534 397 2845 478 
Q 3156 559 3463 722 
L 3463 178 
Q 3153 47 2828 -22 
Q 2503 -91 2169 -91 
Q 1331 -91 842 396 
Q 353 884 353 1716 
Q 353 2575 817 3079 
Q 1281 3584 2069 3584 
Q 2775 3584 3186 3129 
Q 3597 2675 3597 1894 
z
M 3022 2063 
Q 3016 2534 2758 2815 
Q 2500 3097 2075 3097 
Q 1594 3097 1305 2825 
Q 1016 2553 972 2059 
L 3022 2063 
z
" transform="scale(0.015625)"/>
       <path id="DejaVuSans-53" d="M 1159 525 
L 1159 -1331 
L 581 -1331 
L 581 3500 
L 1159 3500 
L 1159 2969 
Q 1341 3281 1617 3432 
Q 1894 3584 2278 3584 
Q 2916 3584 3314 3078 
Q 3713 2572 3713 1747 
Q 3713 922 3314 415 
Q 2916 -91 2278 -91 
Q 1894 -91 1617 61 
Q 1341 213 1159 525 
z
M 3116 1747 
Q 3116 2381 2855 2742 
Q 2594 3103 2138 3103 
Q 1681 3103 1420 2742 
Q 1159 2381 1159 1747 
Q 1159 1113 1420 752 
Q 1681 391 2138 391 
Q 2594 391 2855 752 
Q 3116 1113 3116 1747 
z
" transform="scale(0.015625)"/>
      </defs>
      <use xlink:href="#DejaVuSans-37"/>
      <use xlink:href="#DejaVuSans-55" transform="translate(46.375 0)"/>
      <use xlink:href="#DejaVuSans-44" transform="translate(87.484375 0)"/>
      <use xlink:href="#DejaVuSans-4c" transform="translate(148.765625 0)"/>
      <use xlink:href="#DejaVuSans-51" transform="translate(176.546875 0)"/>
      <use xlink:href="#DejaVuSans-4c" transform="translate(239.921875 0)"/>
      <use xlink:href="#DejaVuSans-51" transform="translate(267.703125 0)"/>
      <use xlink:href="#DejaVuSans-4a" transform="translate(331.078125 0)"/>
      <use xlink:href="#DejaVuSans-3" transform="translate(394.5625 0)"/>
      <use xlink:href="#DejaVuSans-56" transform="translate(426.34375 0)"/>
      <use xlink:href="#DejaVuSans-57" transform="translate(478.4375 0)"/>
      <use xlink:href="#DejaVuSans-48" transform="translate(517.640625 0)"/>
      <use xlink:href="#DejaVuSans-53" transform="translate(579.171875 0)"/>
     </g>
    </g>
   </g>
   <g id="matplotlib.axis_2">
    <g id="ytick_1">
     <g id="line2d_6">
      <defs>
       <path id="mbeb405695d" d="M 0 0 
L -3.5 0 
" style="stroke: #000000; stroke-width: 0.8"/>
      </defs>
      <g>
       <use xlink:href="#mbeb405695d" x="47.962344" y="210.83872" style="stroke: #000000; stroke-width: 0.8"/>
      </g>
     </g>
     <g id="text_7">
      <!-- 2.6 -->
      <g transform="translate(25.059219 214.637548) scale(0.1 -0.1)">
       <defs>
        <path id="DejaVuSans-11" d="M 684 794 
L 1344 794 
L 1344 0 
L 684 0 
L 684 794 
z
" transform="scale(0.015625)"/>
        <path id="DejaVuSans-19" d="M 2113 2584 
Q 1688 2584 1439 2293 
Q 1191 2003 1191 1497 
Q 1191 994 1439 701 
Q 1688 409 2113 409 
Q 2538 409 2786 701 
Q 3034 994 3034 1497 
Q 3034 2003 2786 2293 
Q 2538 2584 2113 2584 
z
M 3366 4563 
L 3366 3988 
Q 3128 4100 2886 4159 
Q 2644 4219 2406 4219 
Q 1781 4219 1451 3797 
Q 1122 3375 1075 2522 
Q 1259 2794 1537 2939 
Q 1816 3084 2150 3084 
Q 2853 3084 3261 2657 
Q 3669 2231 3669 1497 
Q 3669 778 3244 343 
Q 2819 -91 2113 -91 
Q 1303 -91 875 529 
Q 447 1150 447 2328 
Q 447 3434 972 4092 
Q 1497 4750 2381 4750 
Q 2619 4750 2861 4703 
Q 3103 4656 3366 4563 
z
" transform="scale(0.015625)"/>
       </defs>
       <use xlink:href="#DejaVuSans-15"/>
       <use xlink:href="#DejaVuSans-11" transform="translate(63.625 0)"/>
       <use xlink:href="#DejaVuSans-19" transform="translate(95.40625 0)"/>
      </g>
     </g>
    </g>
    <g id="ytick_2">
     <g id="line2d_7">
      <g>
       <use xlink:href="#mbeb405695d" x="47.962344" y="172.469018" style="stroke: #000000; stroke-width: 0.8"/>
      </g>
     </g>
     <g id="text_8">
      <!-- 2.8 -->
      <g transform="translate(25.059219 176.267846) scale(0.1 -0.1)">
       <defs>
        <path id="DejaVuSans-1b" d="M 2034 2216 
Q 1584 2216 1326 1975 
Q 1069 1734 1069 1313 
Q 1069 891 1326 650 
Q 1584 409 2034 409 
Q 2484 409 2743 651 
Q 3003 894 3003 1313 
Q 3003 1734 2745 1975 
Q 2488 2216 2034 2216 
z
M 1403 2484 
Q 997 2584 770 2862 
Q 544 3141 544 3541 
Q 544 4100 942 4425 
Q 1341 4750 2034 4750 
Q 2731 4750 3128 4425 
Q 3525 4100 3525 3541 
Q 3525 3141 3298 2862 
Q 3072 2584 2669 2484 
Q 3125 2378 3379 2068 
Q 3634 1759 3634 1313 
Q 3634 634 3220 271 
Q 2806 -91 2034 -91 
Q 1263 -91 848 271 
Q 434 634 434 1313 
Q 434 1759 690 2068 
Q 947 2378 1403 2484 
z
M 1172 3481 
Q 1172 3119 1398 2916 
Q 1625 2713 2034 2713 
Q 2441 2713 2670 2916 
Q 2900 3119 2900 3481 
Q 2900 3844 2670 4047 
Q 2441 4250 2034 4250 
Q 1625 4250 1398 4047 
Q 1172 3844 1172 3481 
z
" transform="scale(0.015625)"/>
       </defs>
       <use xlink:href="#DejaVuSans-15"/>
       <use xlink:href="#DejaVuSans-11" transform="translate(63.625 0)"/>
       <use xlink:href="#DejaVuSans-1b" transform="translate(95.40625 0)"/>
      </g>
     </g>
    </g>
    <g id="ytick_3">
     <g id="line2d_8">
      <g>
       <use xlink:href="#mbeb405695d" x="47.962344" y="134.099316" style="stroke: #000000; stroke-width: 0.8"/>
      </g>
     </g>
     <g id="text_9">
      <!-- 3.0 -->
      <g transform="translate(25.059219 137.898144) scale(0.1 -0.1)">
       <defs>
        <path id="DejaVuSans-16" d="M 2597 2516 
Q 3050 2419 3304 2112 
Q 3559 1806 3559 1356 
Q 3559 666 3084 287 
Q 2609 -91 1734 -91 
Q 1441 -91 1130 -33 
Q 819 25 488 141 
L 488 750 
Q 750 597 1062 519 
Q 1375 441 1716 441 
Q 2309 441 2620 675 
Q 2931 909 2931 1356 
Q 2931 1769 2642 2001 
Q 2353 2234 1838 2234 
L 1294 2234 
L 1294 2753 
L 1863 2753 
Q 2328 2753 2575 2939 
Q 2822 3125 2822 3475 
Q 2822 3834 2567 4026 
Q 2313 4219 1838 4219 
Q 1578 4219 1281 4162 
Q 984 4106 628 3988 
L 628 4550 
Q 988 4650 1302 4700 
Q 1616 4750 1894 4750 
Q 2613 4750 3031 4423 
Q 3450 4097 3450 3541 
Q 3450 3153 3228 2886 
Q 3006 2619 2597 2516 
z
" transform="scale(0.015625)"/>
       </defs>
       <use xlink:href="#DejaVuSans-16"/>
       <use xlink:href="#DejaVuSans-11" transform="translate(63.625 0)"/>
       <use xlink:href="#DejaVuSans-13" transform="translate(95.40625 0)"/>
      </g>
     </g>
    </g>
    <g id="ytick_4">
     <g id="line2d_9">
      <g>
       <use xlink:href="#mbeb405695d" x="47.962344" y="95.729613" style="stroke: #000000; stroke-width: 0.8"/>
      </g>
     </g>
     <g id="text_10">
      <!-- 3.2 -->
      <g transform="translate(25.059219 99.528442) scale(0.1 -0.1)">
       <use xlink:href="#DejaVuSans-16"/>
       <use xlink:href="#DejaVuSans-11" transform="translate(63.625 0)"/>
       <use xlink:href="#DejaVuSans-15" transform="translate(95.40625 0)"/>
      </g>
     </g>
    </g>
    <g id="ytick_5">
     <g id="line2d_10">
      <g>
       <use xlink:href="#mbeb405695d" x="47.962344" y="57.359911" style="stroke: #000000; stroke-width: 0.8"/>
      </g>
     </g>
     <g id="text_11">
      <!-- 3.4 -->
      <g transform="translate(25.059219 61.158739) scale(0.1 -0.1)">
       <defs>
        <path id="DejaVuSans-17" d="M 2419 4116 
L 825 1625 
L 2419 1625 
L 2419 4116 
z
M 2253 4666 
L 3047 4666 
L 3047 1625 
L 3713 1625 
L 3713 1100 
L 3047 1100 
L 3047 0 
L 2419 0 
L 2419 1100 
L 313 1100 
L 313 1709 
L 2253 4666 
z
" transform="scale(0.015625)"/>
       </defs>
       <use xlink:href="#DejaVuSans-16"/>
       <use xlink:href="#DejaVuSans-11" transform="translate(63.625 0)"/>
       <use xlink:href="#DejaVuSans-17" transform="translate(95.40625 0)"/>
      </g>
     </g>
    </g>
    <g id="text_12">
     <!-- Train loss -->
     <g transform="translate(18.656875 159.261797) rotate(-90) scale(0.1 -0.1)">
      <defs>
       <path id="DejaVuSans-4f" d="M 603 4863 
L 1178 4863 
L 1178 0 
L 603 0 
L 603 4863 
z
" transform="scale(0.015625)"/>
       <path id="DejaVuSans-52" d="M 1959 3097 
Q 1497 3097 1228 2736 
Q 959 2375 959 1747 
Q 959 1119 1226 758 
Q 1494 397 1959 397 
Q 2419 397 2687 759 
Q 2956 1122 2956 1747 
Q 2956 2369 2687 2733 
Q 2419 3097 1959 3097 
z
M 1959 3584 
Q 2709 3584 3137 3096 
Q 3566 2609 3566 1747 
Q 3566 888 3137 398 
Q 2709 -91 1959 -91 
Q 1206 -91 779 398 
Q 353 888 353 1747 
Q 353 2609 779 3096 
Q 1206 3584 1959 3584 
z
" transform="scale(0.015625)"/>
      </defs>
      <use xlink:href="#DejaVuSans-37"/>
      <use xlink:href="#DejaVuSans-55" transform="translate(46.375 0)"/>
      <use xlink:href="#DejaVuSans-44" transform="translate(87.484375 0)"/>
      <use xlink:href="#DejaVuSans-4c" transform="translate(148.765625 0)"/>
      <use xlink:href="#DejaVuSans-51" transform="translate(176.546875 0)"/>
      <use xlink:href="#DejaVuSans-3" transform="translate(239.921875 0)"/>
      <use xlink:href="#DejaVuSans-4f" transform="translate(271.703125 0)"/>
      <use xlink:href="#DejaVuSans-52" transform="translate(299.484375 0)"/>
      <use xlink:href="#DejaVuSans-56" transform="translate(360.671875 0)"/>
      <use xlink:href="#DejaVuSans-56" transform="translate(412.765625 0)"/>
     </g>
    </g>
   </g>
   <g id="line2d_11">
    <path d="M 78.018601 36.147166 
L 78.553172 53.96743 
L 78.820457 57.338258 
L 79.087743 69.47493 
L 79.622314 69.056498 
L 80.156885 91.029428 
L 80.424171 86.222082 
L 80.691456 101.69212 
L 80.958742 109.469884 
L 81.226027 95.219372 
L 81.493313 108.668881 
L 81.760598 111.374736 
L 82.027884 105.5719 
L 82.295169 126.570013 
L 82.562455 119.419074 
L 82.82974 119.379966 
L 83.097026 121.496733 
L 83.364311 125.17983 
L 83.898882 117.792368 
L 84.166168 130.648763 
L 84.433453 133.173076 
L 84.700739 131.706598 
L 85.23531 142.132127 
L 85.769881 126.845095 
L 86.037167 144.322444 
L 86.304452 133.809002 
L 86.571738 140.904367 
L 86.839023 141.281587 
L 87.106309 143.988175 
L 87.373594 153.777228 
L 87.64088 141.884169 
L 87.908165 153.848537 
L 88.175451 147.5013 
L 88.442736 151.505813 
L 88.710022 143.824196 
L 88.977307 148.869574 
L 89.244593 137.316456 
L 89.511878 142.548409 
L 89.779164 157.47638 
L 90.046449 154.72922 
L 90.313735 153.540843 
L 90.58102 150.473776 
L 90.848306 152.927192 
L 91.115591 157.399765 
L 91.382877 153.97725 
L 91.917448 162.598098 
L 92.184734 154.968899 
L 92.452019 162.230026 
L 92.719305 158.727238 
L 92.98659 157.976458 
L 93.521161 168.449374 
L 93.788447 157.286466 
L 94.055732 158.435461 
L 94.323018 162.809647 
L 94.590303 160.890386 
L 95.124874 167.007961 
L 95.39216 158.301534 
L 95.659445 156.94314 
L 95.926731 165.561929 
L 96.194016 164.000083 
L 96.461302 172.53288 
L 96.728587 162.273617 
L 96.995873 160.894914 
L 97.263159 169.123677 
L 97.530444 172.178348 
L 97.79773 164.873584 
L 98.065015 169.21685 
L 98.332301 162.07515 
L 98.599586 177.916371 
L 98.866872 166.947447 
L 99.134157 169.493349 
L 99.401443 168.896393 
L 99.936014 163.815384 
L 100.203299 161.80853 
L 100.470585 156.33269 
L 100.73787 160.029555 
L 101.005156 165.636715 
L 101.272441 174.048804 
L 101.539727 178.9238 
L 101.807012 164.576044 
L 102.074298 174.098889 
L 102.341583 167.549983 
L 102.608869 170.149996 
L 102.876155 165.185167 
L 103.14344 166.073488 
L 103.410726 179.691687 
L 103.678011 172.791953 
L 103.945297 138.948377 
L 104.212582 167.896466 
L 104.747153 162.710391 
L 105.014439 168.655022 
L 105.281724 160.358061 
L 105.54901 167.665203 
L 105.816295 182.749651 
L 106.350866 166.684486 
L 106.618152 179.366199 
L 106.885437 173.76805 
L 107.152723 173.090042 
L 107.420008 179.264656 
L 107.687294 168.687864 
L 107.954579 176.397611 
L 108.221865 173.791881 
L 108.489151 181.976961 
L 108.756436 170.90837 
L 109.023722 171.060227 
L 109.291007 187.089532 
L 109.558293 168.978589 
L 109.825578 165.657572 
L 110.092864 174.609762 
L 110.360149 172.390994 
L 110.627435 176.888496 
L 110.89472 174.940967 
L 111.162006 176.656867 
L 111.429291 174.935341 
L 111.696577 176.072169 
L 111.963862 182.520721 
L 112.231148 166.991861 
L 112.498433 185.802676 
L 112.765719 179.400001 
L 113.033004 189.514177 
L 113.30029 174.721094 
L 113.567575 183.245796 
L 113.834861 174.18479 
L 114.102147 177.650574 
L 114.369432 179.140014 
L 114.636718 182.116926 
L 114.904003 183.339609 
L 115.171289 188.83315 
L 115.70586 185.12293 
L 115.973145 179.493266 
L 116.240431 177.33707 
L 116.775002 191.179259 
L 117.042287 181.114254 
L 117.309573 189.618465 
L 117.576858 182.934213 
L 117.844144 187.105312 
L 118.111429 175.467849 
L 118.646 193.755441 
L 118.913286 178.869003 
L 119.180571 177.577984 
L 119.447857 195.506744 
L 119.982428 186.81907 
L 120.249714 181.800816 
L 120.516999 188.427983 
L 120.784285 186.003018 
L 121.05157 181.036267 
L 121.318856 171.608058 
L 121.586141 185.115794 
L 121.853427 190.198725 
L 122.120712 199.615453 
L 122.387998 182.810349 
L 122.655283 192.937148 
L 122.922569 198.464354 
L 123.45714 172.249337 
L 123.724425 191.876706 
L 123.991711 192.361187 
L 124.258996 191.864814 
L 124.526282 189.940522 
L 124.793567 176.175177 
L 125.060853 192.046174 
L 125.328138 186.516818 
L 125.595424 194.342014 
L 125.86271 181.33239 
L 126.129995 192.331639 
L 126.397281 184.309348 
L 126.664566 189.131056 
L 126.931852 187.276015 
L 127.199137 200.579612 
L 127.466423 169.9701 
L 127.733708 192.288735 
L 128.000994 193.930992 
L 128.268279 193.716882 
L 128.535565 192.053858 
L 128.80285 175.911027 
L 129.070136 189.41149 
L 129.337421 184.021093 
L 129.871992 191.772876 
L 130.139278 185.772624 
L 130.406563 186.702066 
L 130.673849 190.871747 
L 131.475706 177.749647 
L 131.742991 193.982039 
L 132.010277 190.105278 
L 132.277562 188.934648 
L 132.544848 182.171174 
L 132.812133 190.058394 
L 133.079419 192.757984 
L 133.346704 188.432877 
L 133.61399 193.384991 
L 133.881275 190.971278 
L 134.148561 189.92035 
L 134.415846 195.938944 
L 134.683132 192.054224 
L 134.950417 191.263467 
L 135.217703 186.927383 
L 135.484988 193.110824 
L 135.752274 210.673616 
L 136.019559 190.599776 
L 136.286845 199.328616 
L 136.55413 197.287229 
L 136.821416 199.561571 
L 137.088702 193.322007 
L 137.355987 199.67423 
L 137.623273 166.324373 
L 137.890558 187.253648 
L 138.157844 177.657618 
L 138.425129 201.632553 
L 138.692415 188.484838 
L 139.226986 200.092936 
L 139.494271 182.940434 
L 140.028842 186.619551 
L 140.296128 197.158059 
L 140.563413 190.534459 
L 140.830699 175.56212 
L 141.097984 196.526843 
L 141.36527 182.180688 
L 141.632555 203.294936 
L 141.899841 195.969269 
L 142.167126 207.824502 
L 142.434412 198.444046 
L 143.236269 182.95164 
L 143.503554 184.494276 
L 143.77084 193.043403 
L 144.305411 187.689964 
L 144.572696 193.809232 
L 144.839982 189.50265 
L 145.107267 202.057068 
L 145.374553 203.14102 
L 145.641838 166.074129 
L 145.909124 204.054179 
L 146.176409 176.975677 
L 146.71098 209.065252 
L 146.978266 195.540363 
L 147.245551 197.826003 
L 147.512837 183.352462 
L 147.780122 199.297742 
L 148.047408 185.283021 
L 148.314693 198.463622 
L 148.849265 175.332961 
L 149.11655 206.317909 
L 149.651121 178.657866 
L 150.185692 192.92832 
L 150.452978 186.638442 
L 150.720263 200.077201 
L 150.987549 198.510872 
L 151.254834 193.127977 
L 151.52212 198.254818 
L 151.789405 191.410019 
L 152.056691 205.006536 
L 152.323976 200.939725 
L 152.591262 214.568947 
L 152.858547 182.651767 
L 153.125833 184.580999 
L 153.393118 197.95586 
L 153.660404 203.478858 
L 153.927689 185.067813 
L 154.194975 199.207999 
L 154.462261 183.103406 
L 154.729546 194.01145 
L 154.996832 191.586576 
L 155.264117 210.243886 
L 155.531403 206.350339 
L 155.798688 185.064016 
L 156.333259 193.573441 
L 156.600545 196.610639 
L 156.86783 186.035311 
L 157.402401 218.821144 
L 157.669687 199.593224 
L 157.936972 205.582909 
L 158.204258 204.927635 
L 158.471543 195.204675 
L 158.738829 190.060361 
L 159.006114 203.315748 
L 159.540685 186.420535 
L 159.807971 196.36785 
L 160.075257 193.699501 
L 160.342542 199.614127 
L 160.609828 181.954731 
L 160.877113 196.412172 
L 161.144399 188.395279 
L 161.411684 206.046487 
L 161.67897 184.154106 
L 161.946255 201.138238 
L 162.213541 195.48241 
L 162.480826 193.372275 
L 162.748112 204.132806 
L 163.015397 196.357467 
L 163.282683 195.405567 
L 163.549968 188.588531 
L 163.817254 196.627014 
L 164.084539 182.565318 
L 164.351825 205.234552 
L 164.61911 183.353697 
L 164.886396 195.927051 
L 165.153681 186.611363 
L 165.420967 183.126642 
L 165.688253 197.864791 
L 165.955538 193.771633 
L 166.222824 198.797526 
L 166.490109 179.897975 
L 166.757395 198.281027 
L 167.02468 202.511131 
L 167.291966 193.846373 
L 167.559251 191.069757 
L 167.826537 202.469553 
L 168.093822 202.254895 
L 168.361108 202.348799 
L 168.628393 201.066883 
L 168.895679 184.959134 
L 169.162964 203.376537 
L 169.43025 210.474097 
L 169.697535 198.845416 
L 169.964821 200.16237 
L 170.232106 178.869689 
L 170.499392 201.328746 
L 170.766677 206.69737 
L 171.033963 194.086143 
L 171.301249 206.098036 
L 171.568534 193.416643 
L 171.83582 191.292832 
L 172.103105 187.447404 
L 172.370391 176.838319 
L 172.637676 193.959855 
L 172.904962 203.886129 
L 173.172247 201.450872 
L 173.439533 202.905138 
L 173.706818 190.236004 
L 173.974104 205.992925 
L 174.241389 204.225979 
L 174.508675 197.81713 
L 174.77596 198.447659 
L 175.043246 186.633502 
L 175.310531 204.741152 
L 175.577817 197.199957 
L 175.845102 205.41303 
L 176.112388 168.776234 
L 176.379673 197.015761 
L 176.914244 189.707338 
L 177.18153 202.763755 
L 177.448816 197.181203 
L 177.716101 209.018276 
L 178.250672 188.375427 
L 178.517958 185.362563 
L 178.785243 208.740496 
L 179.319814 200.627822 
L 179.5871 200.130077 
L 179.854385 198.213012 
L 180.121671 192.392428 
L 180.388956 193.631028 
L 180.656242 187.860987 
L 181.190813 199.146982 
L 181.458098 212.405433 
L 181.725384 186.132097 
L 181.992669 215.065824 
L 182.259955 191.615804 
L 182.52724 201.684331 
L 182.794526 192.306939 
L 183.061812 201.330072 
L 183.596383 196.61965 
L 183.863668 206.592397 
L 184.130954 204.082217 
L 184.398239 188.368704 
L 184.665525 196.574733 
L 184.93281 199.886968 
L 185.200096 200.823408 
L 185.734667 185.380676 
L 186.001952 205.044409 
L 186.269238 205.573853 
L 186.536523 206.434776 
L 187.071094 198.598876 
L 187.33838 202.703789 
L 187.605665 191.538457 
L 187.872951 191.383032 
L 188.140236 197.896489 
L 188.407522 185.946666 
L 188.674808 206.571859 
L 189.209379 182.227435 
L 189.476664 200.242964 
L 190.011235 193.410834 
L 190.278521 194.155623 
L 190.545806 197.047779 
L 190.813092 189.004264 
L 191.080377 206.511436 
L 191.347663 188.813848 
L 191.614948 203.277509 
L 191.882234 197.520413 
L 192.149519 214.977682 
L 192.68409 192.283017 
L 192.951376 190.150927 
L 193.218661 184.564945 
L 193.485947 207.358866 
L 193.753232 196.186307 
L 194.020518 209.082404 
L 194.287804 183.879573 
L 194.555089 204.606675 
L 194.822375 207.433194 
L 195.08966 190.183723 
L 195.356946 195.008861 
L 195.624231 196.474196 
L 195.891517 204.81644 
L 196.158802 209.319202 
L 196.426088 192.078146 
L 196.693373 205.696208 
L 196.960659 197.22644 
L 197.227944 196.611142 
L 197.49523 189.990333 
L 197.762515 209.888439 
L 198.029801 194.81753 
L 198.297086 213.955479 
L 198.564372 202.419422 
L 199.098943 194.420093 
L 199.366228 193.055844 
L 199.633514 207.302834 
L 199.9008 207.700042 
L 200.168085 200.1862 
L 200.702656 207.264184 
L 200.969942 184.101962 
L 201.504513 210.000731 
L 201.771798 193.66826 
L 202.039084 197.084325 
L 202.306369 190.456563 
L 202.573655 210.260444 
L 202.84094 199.298885 
L 203.108226 196.522909 
L 203.375511 200.338332 
L 203.642797 198.123681 
L 203.910082 210.805714 
L 204.177368 199.597523 
L 204.444653 217.528067 
L 204.711939 198.530403 
L 204.979224 198.212646 
L 205.24651 195.767326 
L 205.513795 195.216614 
L 205.781081 197.117258 
L 206.048367 189.342331 
L 206.315652 213.042138 
L 206.582938 204.73118 
L 206.850223 204.999127 
L 207.117509 199.104215 
L 207.384794 212.3666 
L 207.65208 199.890307 
L 207.919365 213.339312 
L 208.186651 196.434905 
L 208.453936 189.490209 
L 208.721222 191.628428 
L 208.988507 206.830154 
L 209.255793 190.452172 
L 209.523078 196.978162 
L 209.790364 184.379925 
L 210.057649 196.853611 
L 210.324935 203.815186 
L 210.59222 193.312676 
L 210.859506 205.366055 
L 211.126791 198.662958 
L 211.394077 209.232935 
L 211.661363 187.289188 
L 211.928648 177.473331 
L 212.195934 207.496453 
L 212.463219 208.15031 
L 212.730505 195.10176 
L 212.99779 206.647514 
L 213.265076 201.188003 
L 213.532361 200.259019 
L 213.799647 187.403173 
L 214.066932 210.0408 
L 214.334218 198.343509 
L 214.601503 200.314913 
L 214.868789 194.249482 
L 215.136074 209.683614 
L 215.40336 195.106197 
L 215.670645 205.968042 
L 215.937931 197.01448 
L 216.205216 198.204778 
L 216.472502 186.698087 
L 216.739787 199.456186 
L 217.007073 198.298134 
L 217.274359 205.394642 
L 217.541644 201.916462 
L 217.80893 200.135108 
L 218.076215 202.854 
L 218.343501 195.499288 
L 218.610786 198.777126 
L 219.145357 216.177495 
L 219.947214 182.348281 
L 220.214499 194.106223 
L 220.481785 212.888862 
L 220.74907 204.939756 
L 221.016356 203.985157 
L 221.283641 198.206288 
L 221.550927 200.379773 
L 221.818212 228.314898 
L 222.085498 190.592412 
L 222.352783 206.904345 
L 222.620069 202.530159 
L 222.887355 204.26838 
L 223.15464 195.644239 
L 223.421926 202.967207 
L 223.689211 194.436376 
L 223.956497 206.231415 
L 224.223782 196.759066 
L 224.758353 196.08362 
L 225.025639 211.213946 
L 225.292924 205.769209 
L 225.56021 207.841014 
L 225.827495 206.052616 
L 226.094781 200.764128 
L 226.362066 183.858669 
L 226.629352 211.445346 
L 226.896637 209.361511 
L 227.163923 204.366539 
L 227.431208 219.377894 
L 227.698494 197.577222 
L 227.965779 207.247351 
L 228.233065 203.02946 
L 228.500351 190.64547 
L 228.767636 199.272859 
L 229.034922 200.176458 
L 229.302207 181.63304 
L 229.569493 197.503855 
L 229.836778 194.714797 
L 230.104064 195.202068 
L 230.371349 188.911778 
L 230.638635 210.920476 
L 230.90592 198.811614 
L 231.173206 210.412073 
L 231.440491 212.167904 
L 231.707777 218.957587 
L 231.975062 194.799508 
L 232.509633 202.152848 
L 232.776919 202.855784 
L 233.31149 215.005904 
L 233.578775 197.337269 
L 233.846061 194.23393 
L 234.113346 206.217555 
L 234.380632 202.650868 
L 234.647918 202.189669 
L 234.915203 199.899592 
L 235.182489 209.883545 
L 235.449774 181.801319 
L 235.71706 204.207683 
L 235.984345 188.916123 
L 236.251631 200.980983 
L 236.518916 194.330671 
L 236.786202 213.525383 
L 237.053487 209.75936 
L 237.320773 197.004188 
L 237.588058 191.632316 
L 237.855344 204.938063 
L 238.122629 197.823716 
L 238.389915 205.597683 
L 238.6572 191.638994 
L 239.191771 218.176069 
L 239.459057 189.729796 
L 239.726342 204.58257 
L 239.993628 206.108373 
L 240.260914 213.988275 
L 240.528199 198.784719 
L 240.795485 189.935353 
L 241.06277 204.705977 
L 241.597341 191.332535 
L 242.399198 224.333255 
L 242.666483 207.693547 
L 242.933769 201.734828 
L 243.201054 216.408986 
L 243.46834 209.456102 
L 243.735625 208.677603 
L 244.002911 197.779486 
L 244.270196 197.088762 
L 244.537482 206.224782 
L 244.804767 190.882999 
L 245.072053 210.808504 
L 245.339338 203.768211 
L 245.606624 208.266398 
L 245.87391 203.59513 
L 246.141195 188.865031 
L 246.408481 202.931439 
L 246.675766 206.230866 
L 246.943052 200.688657 
L 247.210337 203.666301 
L 247.477623 203.188865 
L 247.744908 197.336674 
L 248.012194 218.070501 
L 248.279479 208.083712 
L 248.546765 192.419918 
L 248.81405 194.225102 
L 249.081336 210.156706 
L 249.348621 199.114506 
L 249.615907 197.201649 
L 249.883192 209.840046 
L 250.150478 205.77511 
L 250.417763 188.565341 
L 250.685049 192.793112 
L 250.952334 219.124264 
L 251.21962 210.121623 
L 251.486906 216.163452 
L 251.754191 205.286604 
L 252.021477 180.651546 
L 252.288762 220.961696 
L 252.556048 197.455828 
L 252.823333 198.531684 
L 253.090619 196.13645 
L 253.357904 200.580939 
L 253.62519 189.982603 
L 253.892475 211.420829 
L 254.159761 207.482685 
L 254.427046 208.047211 
L 254.694332 203.487869 
L 254.961617 189.018261 
L 255.496188 208.394379 
L 256.030759 201.303177 
L 256.298045 211.283654 
L 256.56533 196.707517 
L 256.832616 196.071728 
L 257.099902 194.324816 
L 257.367187 204.583714 
L 257.634473 203.060197 
L 257.901758 199.685527 
L 258.169044 207.706263 
L 258.436329 200.130992 
L 258.703615 208.796391 
L 258.9709 187.822153 
L 259.238186 209.805512 
L 259.505471 206.276149 
L 259.772757 213.999252 
L 260.040042 204.225522 
L 260.307328 211.790913 
L 260.574613 187.209143 
L 260.841899 207.500615 
L 261.109184 212.03265 
L 261.643755 201.900728 
L 261.911041 202.707631 
L 262.178326 205.414768 
L 262.445612 209.802447 
L 262.712897 203.951583 
L 262.980183 213.678064 
L 263.514754 208.354997 
L 263.78204 196.942165 
L 264.049325 205.755899 
L 264.316611 202.524945 
L 264.583896 208.450274 
L 264.851182 207.89883 
L 265.118467 204.103258 
L 265.385753 202.683115 
L 265.653038 214.029075 
L 265.920324 210.93493 
L 266.187609 199.776962 
L 266.454895 200.364221 
L 266.72218 200.381237 
L 266.989466 201.196648 
L 267.524037 195.912689 
L 267.791322 186.113755 
L 268.325893 211.070047 
L 268.593179 208.542303 
L 268.860465 204.7868 
L 269.12775 212.914843 
L 269.395036 192.503942 
L 269.662321 216.455824 
L 269.929607 199.662108 
L 270.196892 198.046334 
L 270.464178 185.431494 
L 270.731463 196.046022 
L 270.998749 199.190892 
L 271.266034 187.324088 
L 271.53332 189.312462 
L 271.800605 194.955528 
L 272.067891 155.177566 
L 272.335176 197.860629 
L 272.602462 203.818479 
L 272.869747 198.762169 
L 273.137033 205.469794 
L 273.404318 218.807056 
L 273.671604 198.005122 
L 273.938889 208.323299 
L 274.473461 197.90024 
L 274.740746 204.020056 
L 275.008032 213.722798 
L 275.275317 198.214887 
L 275.542603 203.189185 
L 275.809888 194.310865 
L 276.077174 200.298401 
L 276.344459 217.620051 
L 276.611745 196.286158 
L 277.146316 209.991309 
L 277.413601 205.684087 
L 277.680887 207.160856 
L 277.948172 197.209516 
L 278.215458 207.047787 
L 278.482743 195.114704 
L 278.750029 197.535461 
L 279.017314 196.839295 
L 279.2846 205.061242 
L 279.551885 184.703217 
L 279.819171 179.35545 
L 280.086457 208.265392 
L 280.353742 204.123429 
L 280.621028 195.252474 
L 280.888313 207.241725 
L 281.155599 191.33409 
L 281.422884 208.286661 
L 281.69017 212.996123 
L 281.957455 190.712114 
L 282.224741 209.00739 
L 282.492026 205.370309 
L 282.759312 214.790193 
L 283.026597 197.554855 
L 283.293883 209.020243 
L 283.561168 207.903221 
L 283.828454 183.47285 
L 284.095739 201.747041 
L 284.363025 196.018394 
L 284.63031 203.80677 
L 284.897596 198.086174 
L 285.164881 201.735651 
L 285.432167 189.22368 
L 285.699453 212.607285 
L 285.966738 196.528856 
L 286.234024 202.356804 
L 286.501309 194.350202 
L 286.768595 195.833009 
L 287.03588 201.693479 
L 287.303166 194.170763 
L 287.570451 208.688352 
L 287.837737 208.262373 
L 288.105022 204.26806 
L 288.372308 207.35356 
L 288.639593 192.639105 
L 288.906879 199.772663 
L 289.174164 196.700244 
L 289.44145 209.256766 
L 289.708735 200.358138 
L 289.976021 177.708481 
L 290.510592 203.289996 
L 290.777877 208.198428 
L 291.045163 197.814706 
L 291.312448 200.443901 
L 291.579734 190.574756 
L 291.84702 194.235943 
L 292.114305 214.517993 
L 292.381591 178.981432 
L 292.648876 199.439628 
L 292.916162 183.409043 
L 293.183447 204.385978 
L 293.450733 196.56435 
L 293.718018 213.581552 
L 293.985304 195.44655 
L 294.252589 218.015201 
L 294.519875 197.424038 
L 294.78716 204.692164 
L 295.054446 202.036119 
L 295.321731 204.273686 
L 295.856302 218.917061 
L 296.123588 195.268392 
L 296.390873 197.194651 
L 296.658159 193.523035 
L 296.925444 200.425833 
L 297.460016 204.472793 
L 297.727301 193.480131 
L 297.994587 204.447636 
L 298.261872 190.043391 
L 298.796443 203.429321 
L 299.063729 203.805352 
L 299.5983 187.769918 
L 299.865585 212.616753 
L 300.132871 198.103601 
L 300.400156 206.073199 
L 300.667442 201.157906 
L 300.934727 200.709835 
L 301.202013 206.302861 
L 301.469298 194.607948 
L 301.736584 216.732461 
L 302.003869 212.958936 
L 302.271155 193.394734 
L 302.53844 189.092177 
L 302.805726 217.927334 
L 303.073012 203.241832 
L 303.340297 200.55075 
L 303.607583 220.140018 
L 303.874868 191.624129 
L 304.142154 209.233713 
L 304.409439 203.976192 
L 304.676725 206.951686 
L 304.94401 194.310637 
L 305.211296 205.153317 
L 305.478581 192.404823 
L 305.745867 192.732369 
L 306.013152 212.758548 
L 306.280438 193.879718 
L 306.547723 200.207561 
L 306.815009 196.395477 
L 307.082294 199.478507 
L 307.34958 200.362117 
L 307.616865 205.488364 
L 307.884151 202.187016 
L 308.151436 187.419136 
L 308.418722 198.189181 
L 308.686008 198.959401 
L 308.953293 186.319586 
L 309.487864 202.727711 
L 309.75515 214.970364 
L 310.022435 195.530117 
L 310.289721 199.878734 
L 310.557006 198.543897 
L 311.091577 207.990813 
L 311.358863 198.920293 
L 311.626148 201.580775 
L 311.893434 209.341386 
L 312.160719 207.783518 
L 312.428005 198.04885 
L 312.69529 201.09849 
L 312.962576 200.073771 
L 313.229861 190.677306 
L 313.497147 198.188769 
L 313.764432 217.753658 
L 314.031718 205.726168 
L 314.299004 208.496106 
L 314.566289 212.635049 
L 314.833575 199.418816 
L 315.10086 210.856028 
L 315.368146 210.344789 
L 315.635431 205.744784 
L 315.902717 195.772449 
L 316.170002 205.754435 
L 316.437288 205.850993 
L 316.704573 204.589843 
L 316.971859 192.87389 
L 317.773715 221.201329 
L 318.041001 192.659779 
L 318.308286 194.410625 
L 318.575572 191.763271 
L 318.842857 203.552957 
L 319.110143 197.869914 
L 319.377428 206.899222 
L 319.644714 206.401568 
L 319.911999 212.035669 
L 320.179285 180.194052 
L 320.446571 207.070565 
L 320.713856 213.294395 
L 320.981142 195.972197 
L 321.248427 194.082027 
L 321.515713 203.184885 
L 321.782998 206.090397 
L 322.050284 216.153572 
L 322.317569 193.478942 
L 322.584855 209.87952 
L 323.119426 196.349874 
L 323.386711 200.892658 
L 323.653997 182.707067 
L 323.921282 206.778605 
L 324.188568 213.725177 
L 324.455853 189.077266 
L 324.723139 208.262099 
L 324.990424 204.42344 
L 325.25771 220.099584 
L 325.792281 209.40007 
L 326.059567 192.93047 
L 326.326852 206.370602 
L 326.861423 197.940857 
L 327.128709 197.645604 
L 327.395994 207.093618 
L 327.66328 203.529355 
L 327.930565 203.535027 
L 328.197851 217.224535 
L 328.465136 198.183006 
L 328.732422 193.404111 
L 328.999707 201.471135 
L 329.266993 202.378164 
L 329.534278 201.197975 
L 329.801564 206.895929 
L 330.068849 189.128769 
L 330.336135 214.149006 
L 330.60342 209.117899 
L 330.870706 189.423108 
L 331.137991 220.224272 
L 331.405277 211.742246 
L 331.672563 211.567289 
L 331.939848 214.935052 
L 332.207134 209.592042 
L 332.741705 185.774957 
L 333.00899 211.822611 
L 333.276276 201.707109 
L 333.543561 200.927192 
L 333.810847 188.52294 
L 334.078132 209.271495 
L 334.345418 204.895571 
L 334.612703 217.641411 
L 334.879989 211.438576 
L 335.147274 185.74486 
L 335.41456 207.08383 
L 335.681845 202.009086 
L 335.949131 209.136881 
L 336.216416 205.09111 
L 336.483702 212.356171 
L 337.018273 196.926293 
L 337.285559 199.680222 
L 337.552844 198.520752 
L 337.82013 194.30254 
L 338.087415 206.087196 
L 338.354701 203.371643 
L 338.621986 209.944151 
L 338.889272 208.349463 
L 339.156557 205.568455 
L 339.423843 200.843076 
L 339.691128 223.218383 
L 339.958414 206.094926 
L 340.225699 211.163677 
L 340.492985 199.0174 
L 340.76027 212.447103 
L 341.027556 204.574245 
L 341.294841 206.209642 
L 341.562127 190.10322 
L 341.829412 198.749819 
L 342.096698 188.409138 
L 342.363983 214.907105 
L 342.898555 208.81368 
L 343.16584 191.181866 
L 343.700411 207.62823 
L 343.967697 201.24344 
L 344.234982 208.884715 
L 344.502268 210.952815 
L 345.036839 199.156587 
L 345.304124 209.312706 
L 345.57141 205.256232 
L 345.838695 193.01047 
L 346.105981 208.274403 
L 346.373266 209.882081 
L 346.640552 213.352165 
L 346.907837 201.992986 
L 347.175123 205.904463 
L 347.442408 212.870475 
L 347.709694 202.45789 
L 347.976979 200.747616 
L 348.244265 188.177921 
L 348.51155 205.938631 
L 348.778836 190.578415 
L 349.046122 206.597337 
L 349.313407 207.038273 
L 349.580693 199.77742 
L 349.847978 222.360616 
L 350.115264 213.344664 
L 350.382549 187.386889 
L 350.649835 198.146643 
L 350.91712 202.715865 
L 351.184406 204.594142 
L 351.451691 201.902146 
L 351.718977 188.821944 
L 351.986262 199.35542 
L 352.253548 205.264694 
L 352.520833 196.996047 
L 352.788119 209.415759 
L 353.055404 204.965187 
L 353.32269 211.42586 
L 353.589975 196.076164 
L 353.857261 198.834439 
L 354.124546 189.865599 
L 354.391832 208.404442 
L 354.659118 213.273904 
L 354.926403 202.66276 
L 355.193689 206.660184 
L 355.460974 208.666214 
L 355.72826 207.227271 
L 355.995545 191.919839 
L 356.262831 214.390606 
L 356.530116 217.037228 
L 356.797402 207.59173 
L 357.331973 220.507678 
L 357.599258 194.77522 
L 357.866544 199.092048 
L 358.133829 191.543123 
L 358.401115 204.810036 
L 358.935686 206.111392 
L 359.470257 190.177548 
L 359.737542 211.893554 
L 360.004828 204.028518 
L 360.272114 205.150115 
L 360.539399 187.380669 
L 360.806685 212.356308 
L 361.07397 209.418412 
L 361.341256 219.685863 
L 361.608541 205.044364 
L 361.875827 204.407339 
L 362.143112 203.386142 
L 362.410398 206.599303 
L 362.677683 202.67511 
L 363.212254 210.527979 
L 363.47954 205.114941 
L 363.746825 217.051042 
L 364.014111 201.175836 
L 364.281396 209.980834 
L 364.548682 209.297063 
L 364.815967 201.504983 
L 365.083253 203.721144 
L 365.350538 197.380036 
L 365.88511 215.177476 
L 366.152395 206.283513 
L 366.419681 217.097468 
L 366.686966 205.083563 
L 366.954252 203.717713 
L 367.221537 184.622577 
L 367.488823 199.515282 
L 367.756108 226.581755 
L 368.023394 205.054701 
L 368.290679 203.961966 
L 368.557965 208.462304 
L 368.82525 195.72337 
L 369.092536 201.555252 
L 369.359821 189.27244 
L 369.627107 196.669781 
L 369.894392 210.901082 
L 370.161678 202.577821 
L 370.428963 189.043647 
L 370.963534 207.537253 
L 371.23082 213.158684 
L 371.498106 198.865954 
L 371.765391 206.631962 
L 372.032677 180.694359 
L 372.299962 209.215234 
L 372.834533 196.199434 
L 373.101819 214.059858 
L 373.369104 206.340276 
L 373.63639 203.531734 
L 373.903675 202.440051 
L 374.170961 198.043818 
L 374.438246 208.234151 
L 374.705532 222.878487 
L 374.972817 203.556616 
L 375.240103 211.748649 
L 375.507388 212.674981 
L 375.774674 204.100971 
L 376.041959 190.920964 
L 376.309245 218.888245 
L 376.57653 203.154331 
L 377.111101 193.104329 
L 377.378387 210.122766 
L 377.645673 202.24474 
L 377.912958 204.577173 
L 378.180244 196.602726 
L 378.447529 206.39951 
L 378.714815 199.221493 
L 378.9821 210.443314 
L 379.249386 180.975982 
L 379.516671 214.427152 
L 379.783957 213.424938 
L 380.051242 198.463439 
L 380.318528 190.111041 
L 380.585813 214.531623 
L 380.853099 213.375401 
L 381.38767 193.634962 
L 381.654955 200.157109 
L 381.922241 209.789869 
L 382.189526 199.30291 
L 382.456812 204.352634 
L 382.724097 218.364793 
L 382.991383 197.729171 
L 383.258669 201.762501 
L 383.525954 201.322617 
L 383.79324 212.622059 
L 384.060525 197.69729 
L 384.327811 196.153923 
L 384.595096 205.087725 
L 384.862382 203.381889 
L 385.129667 191.648783 
L 385.396953 199.226433 
L 385.664238 201.212749 
L 385.931524 199.078417 
L 386.198809 198.231582 
L 386.466095 196.503241 
L 387.000666 213.708802 
L 387.267951 210.657104 
L 387.535237 214.491921 
L 387.802522 183.107386 
L 388.069808 203.274902 
L 388.337093 213.101097 
L 388.604379 197.318378 
L 388.871665 205.173443 
L 389.13895 200.768108 
L 389.406236 200.924722 
L 389.673521 233.428796 
L 390.208092 190.68682 
L 390.475378 208.920026 
L 390.742663 190.278771 
L 391.009949 207.490232 
L 391.277234 209.693768 
L 391.54452 213.026632 
L 391.811805 211.849323 
L 392.079091 193.293328 
L 392.346376 226.251647 
L 392.613662 219.509672 
L 392.880947 198.101405 
L 393.148233 198.945313 
L 393.415518 200.410693 
L 393.682804 208.099035 
L 393.950089 205.827391 
L 394.217375 205.390709 
L 394.484661 205.518141 
L 394.751946 217.074873 
L 395.019232 196.624727 
L 395.286517 198.820579 
L 395.553803 207.78393 
L 395.821088 203.114811 
L 396.088374 208.196324 
L 396.355659 194.566828 
L 396.622945 200.745146 
L 396.89023 195.182583 
L 397.157516 210.046472 
L 397.692087 191.686244 
L 397.959372 218.013828 
L 398.493943 187.25008 
L 398.761229 213.450141 
L 399.028514 205.298679 
L 399.2958 203.249425 
L 399.563085 214.712892 
L 399.830371 196.568009 
L 400.097657 196.501823 
L 400.364942 206.389447 
L 400.632228 199.203837 
L 400.899513 203.581087 
L 401.166799 211.140212 
L 401.434084 208.607392 
L 401.70137 215.64517 
L 401.968655 206.154159 
L 402.235941 192.591947 
L 402.770512 212.817782 
L 403.037797 202.994194 
L 403.305083 213.836737 
L 403.572368 209.282426 
L 403.839654 190.955635 
L 404.106939 204.969167 
L 404.374225 208.615945 
L 404.64151 182.342289 
L 404.908796 195.999321 
L 405.176081 201.342011 
L 405.710652 202.798929 
L 405.977938 202.826144 
L 406.245224 215.94239 
L 406.512509 206.440036 
L 406.779795 201.216088 
L 407.04708 201.551821 
L 407.314366 196.736562 
L 407.848937 220.583241 
L 408.116222 199.267599 
L 408.918079 219.622787 
L 409.185364 201.790174 
L 409.45265 206.716764 
L 409.719935 189.533845 
L 409.987221 198.399998 
L 410.254506 201.551227 
L 410.521792 207.754199 
L 411.056363 198.633502 
L 411.323648 216.422068 
L 411.590934 208.71758 
L 411.85822 205.244477 
L 412.125505 208.991335 
L 412.392791 216.566287 
L 412.660076 190.08099 
L 412.927362 208.081928 
L 413.194647 198.105979 
L 413.461933 233.71888 
L 413.729218 223.909975 
L 413.996504 190.820976 
L 414.263789 202.539719 
L 414.531075 209.275062 
L 415.065646 212.096138 
L 415.332931 201.006186 
L 415.600217 213.943129 
L 415.867502 193.692091 
L 416.134788 219.439598 
L 416.402073 220.207851 
L 416.669359 199.216278 
L 416.936644 209.987558 
L 417.20393 199.644041 
L 417.471216 200.114754 
L 417.738501 209.436708 
L 418.005787 195.784708 
L 418.273072 191.733814 
L 418.540358 209.986415 
L 418.807643 206.635438 
L 419.074929 199.50618 
L 419.342214 195.351227 
L 419.6095 202.361561 
L 419.876785 205.972159 
L 420.144071 192.591443 
L 420.411356 207.881174 
L 420.678642 207.632484 
L 420.945927 206.567971 
L 421.213213 206.675049 
L 421.480498 211.065702 
L 421.747784 197.394261 
L 422.015069 193.405437 
L 422.282355 204.002629 
L 422.54964 206.743751 
L 422.816926 222.668859 
L 423.084212 219.736452 
L 423.351497 224.420482 
L 423.618783 212.972521 
L 423.886068 215.568783 
L 424.153354 206.110569 
L 424.420639 190.802405 
L 424.687925 213.116466 
L 424.95521 184.108274 
L 425.222496 222.923587 
L 425.489781 197.938616 
L 425.757067 195.497413 
L 426.024352 210.566813 
L 426.558923 191.076801 
L 426.826209 212.636056 
L 427.093494 197.710738 
L 427.36078 206.217372 
L 427.628065 197.255257 
L 427.895351 209.12078 
L 428.162636 212.732293 
L 428.429922 205.0284 
L 428.697208 190.444259 
L 428.964493 220.943263 
L 429.231779 209.697748 
L 429.499064 213.530827 
L 429.76635 209.148087 
L 430.033635 190.148823 
L 430.300921 186.412713 
L 430.568206 216.676521 
L 430.835492 207.832095 
L 431.102777 205.922759 
L 431.370063 211.267919 
L 431.637348 199.903891 
L 431.904634 161.145388 
L 432.171919 201.961837 
L 432.439205 216.378614 
L 432.70649 202.522063 
L 432.973776 222.441485 
L 433.241061 202.845767 
L 433.508347 204.463966 
L 433.775632 200.445959 
L 434.042918 223.419777 
L 434.310203 205.653075 
L 434.577489 219.872849 
L 434.844775 208.182556 
L 435.11206 205.850032 
L 435.379346 196.16115 
L 435.646631 209.693586 
L 435.913917 214.497592 
L 436.181202 198.61086 
L 436.448488 199.95201 
L 436.715773 231.432279 
L 436.983059 207.524354 
L 437.250344 207.086666 
L 437.51763 198.903232 
L 437.784915 216.127912 
L 438.052201 211.730079 
L 438.319486 205.321458 
L 438.586772 208.478542 
L 438.854057 207.994427 
L 439.121343 184.295809 
L 439.388628 215.033119 
L 439.655914 198.529534 
L 439.923199 199.407884 
L 440.457771 220.562109 
L 440.725056 198.664834 
L 440.992342 221.253473 
L 441.259627 216.553296 
L 441.526913 191.511974 
L 441.794198 212.370442 
L 442.061484 190.082957 
L 442.328769 210.210771 
L 442.596055 195.970642 
L 442.86334 215.612603 
L 443.130626 192.450472 
L 443.397911 219.842661 
L 443.665197 199.396403 
L 443.932482 197.782093 
L 444.199768 199.419777 
L 444.467053 216.984719 
L 444.734339 213.350976 
L 445.001624 217.341584 
L 445.26891 207.178604 
L 445.536195 204.381816 
L 445.803481 198.375207 
L 446.070767 205.34291 
L 446.338052 204.319655 
L 446.605338 196.181962 
L 446.872623 212.403284 
L 447.139909 208.636025 
L 447.407194 201.523599 
L 447.67448 211.336209 
L 447.941765 201.460615 
L 448.209051 218.291197 
L 448.476336 217.43837 
L 448.743622 199.000842 
L 449.278193 212.924219 
L 449.545478 229.006308 
L 449.812764 202.027154 
L 450.080049 212.382289 
L 450.347335 200.268441 
L 450.61462 214.348388 
L 450.881906 211.355786 
L 451.149191 215.535256 
L 451.416477 213.328746 
L 451.683763 208.665116 
L 451.951048 209.311792 
L 452.218334 224.497326 
L 452.485619 193.447244 
L 452.752905 204.467122 
L 453.02019 199.398507 
L 453.287476 216.849144 
L 453.554761 202.993417 
L 453.822047 217.23071 
L 454.089332 206.124062 
L 454.356618 227.827124 
L 454.891189 202.534505 
L 455.158474 202.552023 
L 455.42576 201.528585 
L 455.693045 210.63954 
L 455.960331 193.17669 
L 456.227616 213.388254 
L 456.494902 204.536693 
L 456.762187 217.717797 
L 457.029473 198.190736 
L 457.296759 220.250161 
L 457.564044 206.270751 
L 457.83133 202.889175 
L 458.098615 219.894713 
L 458.365901 205.588993 
L 458.633186 202.004375 
L 458.900472 210.937766 
L 459.435043 187.914686 
L 459.702328 232.357879 
L 459.969614 205.292322 
L 460.236899 204.101245 
L 460.77147 188.114845 
L 461.038756 202.223562 
L 461.306041 195.165888 
L 461.573327 203.588406 
L 461.840612 198.316933 
L 462.107898 206.270294 
L 462.375183 190.27502 
L 462.642469 201.557218 
L 462.909754 191.502597 
L 463.17704 202.099286 
L 463.444326 200.854191 
L 463.711611 214.262259 
L 463.978897 207.154316 
L 464.246182 217.632172 
L 464.513468 198.522948 
L 465.315324 209.927867 
L 465.58261 201.023018 
L 465.849895 205.918231 
L 466.117181 204.951099 
L 466.384466 193.841067 
L 466.651752 222.421222 
L 466.919037 206.800103 
L 467.186323 211.54817 
L 467.453608 193.673841 
L 467.720894 209.663077 
L 467.988179 181.427072 
L 468.255465 203.010798 
L 468.52275 206.921269 
L 468.790036 200.538309 
L 469.057322 205.919146 
L 469.324607 195.935147 
L 469.591893 204.522467 
L 469.859178 193.327587 
L 470.393749 219.477196 
L 470.661035 213.716395 
L 470.92832 187.956584 
L 471.195606 194.858788 
L 471.462891 188.44111 
L 471.730177 202.656723 
L 471.997462 208.666214 
L 472.264748 190.026879 
L 472.532033 206.512854 
L 472.799319 211.100235 
L 473.066604 197.4776 
L 473.33389 230.342747 
L 473.601175 192.232108 
L 473.868461 214.006068 
L 474.135746 218.156675 
L 474.403032 215.865775 
L 475.204889 197.238561 
L 475.472174 208.375992 
L 475.73946 213.037381 
L 476.006745 201.688493 
L 476.274031 214.2033 
L 476.541316 218.26325 
L 476.808602 213.216179 
L 477.075887 222.280525 
L 477.343173 204.293812 
L 477.610458 208.732354 
L 477.877744 204.929693 
L 478.412315 192.337905 
L 478.6796 197.843202 
L 478.946886 200.979931 
L 479.214171 217.320955 
L 479.481457 218.078871 
L 479.748742 198.579803 
L 480.016028 200.358915 
L 480.283314 201.26997 
L 480.550599 196.766293 
L 480.817885 195.962088 
L 481.08517 203.416651 
L 481.352456 206.461397 
L 481.619741 204.455824 
L 481.887027 216.522193 
L 482.154312 195.343772 
L 482.421598 206.15018 
L 482.688883 197.193599 
L 482.956169 213.701209 
L 483.223454 211.54698 
L 483.49074 189.690185 
L 483.758025 203.89084 
L 484.025311 203.400459 
L 484.292596 191.969971 
L 484.827167 219.883278 
L 485.094453 209.072524 
L 485.361738 214.173797 
L 485.629024 197.71609 
L 485.89631 194.905214 
L 486.163595 194.249848 
L 486.430881 200.062564 
L 486.698166 196.688489 
L 486.965452 203.896741 
L 487.232737 204.006472 
L 487.500023 200.622105 
L 487.767308 206.172135 
L 488.034594 202.020979 
L 488.301879 215.353896 
L 488.569165 210.940831 
L 488.83645 202.480577 
L 489.103736 220.000556 
L 489.638307 213.281817 
L 490.440163 193.594802 
L 490.974734 204.30328 
L 491.24202 214.26418 
L 491.509305 201.832346 
L 491.776591 200.652293 
L 492.043877 211.040133 
L 492.311162 202.079069 
L 492.578448 186.436956 
L 492.845733 207.102629 
L 493.113019 199.23613 
L 493.380304 212.439098 
L 493.64759 215.486451 
L 494.182161 195.844764 
L 494.716732 211.293854 
L 495.251303 187.740278 
L 495.518588 197.863465 
L 495.785874 198.020034 
L 496.053159 213.042412 
L 496.320445 205.470754 
L 496.58773 213.032212 
L 496.855016 212.70924 
L 497.122301 217.490377 
L 497.389587 203.759977 
L 497.656873 202.984497 
L 497.924158 199.474208 
L 498.458729 195.099656 
L 498.726015 199.155993 
L 498.9933 209.048008 
L 499.260586 194.796078 
L 499.527871 205.556746 
L 500.062442 198.916863 
L 500.597013 227.467606 
L 500.864299 197.187469 
L 501.131584 204.48368 
L 501.39887 218.993996 
L 501.666155 192.796863 
L 501.933441 207.644011 
L 502.200726 201.118615 
L 502.468012 224.409276 
L 503.002583 189.585532 
L 503.269869 206.898673 
L 503.537154 194.492134 
L 503.80444 201.858189 
L 504.071725 215.823831 
L 504.339011 207.37515 
L 504.606296 205.859592 
L 504.873582 208.526798 
L 505.140867 191.587216 
L 505.408153 198.118649 
L 505.675438 194.838159 
L 505.942724 200.34469 
L 506.210009 213.268506 
L 506.477295 201.976291 
L 507.011866 219.370255 
L 507.279151 196.499033 
L 507.546437 201.780339 
L 507.813722 215.64302 
L 508.081008 203.941429 
L 508.348293 212.897919 
L 508.882865 202.181847 
L 509.15015 213.199255 
L 509.417436 190.480714 
L 509.684721 198.48265 
L 509.952007 215.238539 
L 510.219292 199.326924 
L 510.486578 210.594668 
L 510.753863 213.345304 
L 511.021149 206.764471 
L 511.288434 212.401637 
L 511.55572 198.435218 
L 511.823005 208.38267 
L 512.090291 204.110165 
L 512.357576 206.654192 
L 512.624862 207.758133 
L 512.892147 207.775057 
L 513.159433 212.564244 
L 513.426718 198.959721 
L 513.694004 206.976889 
L 513.961289 195.015585 
L 514.495861 206.871458 
L 514.763146 193.515717 
L 515.030432 203.349733 
L 515.297717 204.571044 
L 515.565003 210.909178 
L 515.832288 201.357517 
L 516.099574 198.509637 
L 516.366859 203.018482 
L 516.634145 202.315821 
L 516.90143 196.602452 
L 517.168716 198.996268 
L 517.436001 216.208918 
L 517.703287 199.241618 
L 517.970572 213.898304 
L 518.237858 209.697428 
L 518.505143 195.697893 
L 518.772429 203.430648 
L 519.307 195.272325 
L 519.574285 228.051297 
L 519.841571 203.652396 
L 520.376142 191.123593 
L 520.910713 222.379186 
L 521.177999 215.959176 
L 521.445284 195.454188 
L 521.71257 209.509755 
L 521.979855 208.773566 
L 522.247141 211.927036 
L 522.514426 212.501488 
L 522.781712 194.63338 
L 523.048997 202.230332 
L 523.316283 203.43513 
L 523.583568 199.106136 
L 523.850854 209.898639 
L 524.118139 214.53606 
L 524.385425 211.987916 
L 524.65271 227.707559 
L 524.919996 208.684098 
L 525.187281 212.729503 
L 525.454567 212.202301 
L 525.721852 198.602581 
L 525.989138 197.888759 
L 526.256424 214.154952 
L 526.523709 185.918216 
L 526.790995 214.269166 
L 527.05828 210.848664 
L 527.325566 217.211041 
L 527.592851 209.874397 
L 527.860137 211.543596 
L 528.127422 218.066521 
L 528.394708 215.148293 
L 528.661993 191.468566 
L 528.929279 198.334269 
L 529.196564 214.750262 
L 529.46385 210.664925 
L 529.731135 194.892681 
L 529.998421 211.464328 
L 530.532992 200.604175 
L 530.800277 206.383272 
L 531.067563 207.377985 
L 531.334848 198.589683 
L 531.86942 208.528673 
L 532.136705 195.678682 
L 532.403991 211.350206 
L 532.671276 199.999489 
L 532.938562 200.845958 
L 533.205847 197.926495 
L 533.473133 212.571562 
L 534.007704 195.991636 
L 534.274989 201.061303 
L 534.542275 219.005157 
L 534.80956 199.598484 
L 535.076846 216.277894 
L 535.344131 214.307496 
L 535.611417 211.148263 
L 535.878702 194.031941 
L 536.413273 203.716341 
L 536.680559 201.969155 
L 536.947844 221.216149 
L 537.21513 202.328948 
L 537.482416 208.728786 
L 537.749701 208.026765 
L 538.016987 219.788779 
L 538.284272 211.367862 
L 538.818843 204.172006 
L 539.086129 195.165476 
L 539.6207 215.429367 
L 539.887985 216.769785 
L 540.155271 199.782222 
L 540.422556 165.07475 
L 540.689842 206.872281 
L 540.957127 204.811271 
L 541.224413 190.129749 
L 541.758984 201.778693 
L 542.026269 219.895491 
L 542.293555 197.963224 
L 542.56084 216.917572 
L 543.095412 199.046628 
L 543.362697 211.063094 
L 543.629983 195.612313 
L 544.164554 223.754504 
L 544.431839 201.188827 
L 544.699125 215.701064 
L 544.96641 214.953028 
L 545.233696 206.027367 
L 545.500981 212.314685 
L 545.768267 205.646717 
L 546.035552 211.160338 
L 546.302838 195.772678 
L 547.104694 218.189014 
L 547.639265 198.33802 
L 547.906551 209.975391 
L 548.173836 200.837907 
L 548.708407 215.442723 
L 548.975693 177.157586 
L 549.242979 214.425414 
L 549.77755 223.481664 
L 550.312121 199.006193 
L 550.579406 198.822363 
L 550.846692 204.872883 
L 551.113977 205.39048 
L 551.381263 205.138497 
L 551.648548 210.610723 
L 551.915834 199.915189 
L 552.183119 207.11594 
L 552.450405 203.267858 
L 552.71769 193.714092 
L 552.984976 203.525833 
L 553.252261 196.66475 
L 553.786832 201.128632 
L 554.054118 199.338496 
L 554.321403 190.660427 
L 554.588689 203.906483 
L 554.855975 201.242022 
L 555.12326 215.895506 
L 555.390546 190.93121 
L 555.657831 215.646084 
L 555.925117 210.754439 
L 556.459688 209.757805 
L 556.726973 210.469066 
L 556.994259 204.950459 
L 557.261544 213.978029 
L 557.52883 207.924033 
L 557.796115 208.491395 
L 558.063401 224.784209 
L 558.330686 216.196385 
L 558.597972 212.557154 
L 558.865257 213.146608 
L 559.132543 210.88983 
L 559.399828 195.093252 
L 559.934399 219.531307 
L 560.201685 225.998429 
L 560.468971 219.585692 
L 560.736256 218.23791 
L 561.003542 202.388822 
L 561.270827 208.018761 
L 561.538113 206.632282 
L 561.805398 222.169147 
L 562.072684 203.101592 
L 562.339969 210.494863 
L 562.607255 223.545563 
L 562.87454 204.634394 
L 563.141826 205.692274 
L 563.409111 215.719589 
L 563.676397 183.653753 
L 563.943682 202.834332 
L 564.210968 212.184737 
L 565.012824 199.6928 
L 565.28011 206.534398 
L 565.547395 206.808657 
L 565.814681 197.841555 
L 566.081967 199.932342 
L 566.349252 207.262949 
L 566.616538 202.695236 
L 566.883823 209.072387 
L 567.151109 202.461961 
L 567.418394 213.275139 
L 567.68568 204.976988 
L 567.952965 212.652019 
L 568.220251 210.741312 
L 568.487536 204.527819 
L 568.754822 207.649728 
L 569.022107 197.31664 
L 569.289393 197.963087 
L 569.556678 206.986495 
L 569.823964 209.958101 
L 570.091249 221.739097 
L 570.358535 204.630597 
L 570.893106 235.89049 
L 571.427677 199.514047 
L 571.694963 223.546386 
L 571.962248 219.70512 
L 572.229534 185.682608 
L 572.496819 215.186395 
L 572.764105 202.50116 
L 573.03139 201.226699 
L 573.298676 205.760153 
L 573.565961 199.639193 
L 573.833247 198.133972 
L 574.100532 216.29555 
L 574.367818 195.057392 
L 574.635103 214.836573 
L 574.902389 212.951526 
L 575.169674 196.136587 
L 575.43696 199.145701 
L 575.704245 199.823343 
L 575.971531 197.445856 
L 576.238816 210.151491 
L 576.506102 208.767208 
L 576.773387 211.398599 
L 577.040673 201.047123 
L 577.307958 198.141474 
L 577.575244 230.209826 
L 577.84253 214.534276 
L 578.109815 205.909815 
L 578.377101 208.64746 
L 578.644386 209.182027 
L 578.911672 208.118474 
L 579.178957 211.713109 
L 579.446243 199.915372 
L 579.713528 210.400181 
L 579.980814 202.950466 
L 580.248099 217.893028 
L 580.515385 210.597916 
L 580.78267 210.242514 
L 581.049956 210.989818 
L 581.317241 209.558377 
L 581.851812 214.179332 
L 582.119098 198.240364 
L 582.386383 216.177357 
L 582.653669 205.464899 
L 582.920954 200.687193 
L 583.18824 198.174178 
L 583.455526 202.187382 
L 583.722811 216.536921 
L 583.990097 212.196492 
L 584.257382 214.921925 
L 584.791953 195.360512 
L 585.059239 203.609172 
L 585.326524 195.610163 
L 585.59381 208.220612 
L 585.861095 206.02165 
L 586.128381 206.890303 
L 586.395666 198.11499 
L 586.662952 211.446901 
L 586.930237 198.986799 
L 587.197523 211.698747 
L 587.464808 217.176141 
L 587.999379 206.949719 
L 588.266665 207.00662 
L 588.53395 204.145339 
L 589.068522 220.537547 
L 589.335807 219.854782 
L 589.603093 208.575831 
L 589.870378 206.2407 
L 590.137664 209.500653 
L 590.404949 198.278878 
L 590.672235 219.90505 
L 590.93952 200.655724 
L 591.206806 208.409245 
L 591.474091 211.073843 
L 591.741377 223.243768 
L 592.008662 199.93097 
L 592.275948 215.344016 
L 592.543233 198.678602 
L 592.810519 203.066098 
L 593.077804 217.288754 
L 593.34509 209.375462 
L 593.612375 192.146437 
L 593.879661 192.996748 
L 594.146946 214.218989 
L 594.414232 201.006231 
L 594.681518 228.429752 
L 594.948803 224.281981 
L 595.216089 217.091522 
L 595.483374 205.848477 
L 596.017945 220.352756 
L 596.285231 205.17669 
L 596.552516 219.523485 
L 596.819802 195.33906 
L 597.087087 200.783842 
L 597.354373 215.128716 
L 597.621658 217.418062 
L 597.888944 207.49691 
L 598.156229 219.633674 
L 598.6908 197.603889 
L 598.958086 204.627258 
L 599.225371 200.243924 
L 599.492657 213.421141 
L 599.759942 216.176717 
L 600.027228 201.005911 
L 600.294514 208.683366 
L 600.561799 223.483447 
L 600.829085 203.974774 
L 601.09637 201.758842 
L 601.363656 212.320036 
L 601.630941 206.65067 
L 601.898227 217.145313 
L 602.165512 205.556197 
L 602.432798 209.581202 
L 602.700083 200.603534 
L 602.967369 207.363714 
L 603.234654 203.221477 
L 603.50194 203.442815 
L 603.769225 226.835064 
L 604.036511 202.956596 
L 604.303796 219.510129 
L 604.571082 209.419876 
L 604.838367 216.222274 
L 605.105653 200.222884 
L 605.372938 204.84887 
L 605.640224 203.440482 
L 605.907509 207.823495 
L 606.174795 208.54642 
L 606.442081 221.984539 
L 606.709366 210.457905 
L 606.976652 209.36636 
L 607.243937 216.505452 
L 607.511223 209.816718 
L 607.778508 210.995124 
L 608.045794 232.016611 
L 608.313079 208.044101 
L 608.580365 225.75317 
L 608.84765 212.488223 
L 609.114936 229.52761 
L 609.382221 212.096367 
L 609.649507 216.10088 
L 609.916792 209.715998 
L 610.184078 213.570026 
L 610.451363 212.508989 
L 610.718649 216.367408 
L 610.985934 197.136286 
L 611.25322 216.441507 
L 611.520505 191.55163 
L 611.787791 195.738281 
L 612.055077 211.091682 
L 612.322362 215.810063 
L 612.589648 195.06343 
L 612.856933 205.479765 
L 613.124219 203.296491 
L 613.391504 200.011884 
L 613.926075 205.865767 
L 614.193361 198.910322 
L 614.460646 198.85708 
L 614.727932 195.661163 
L 614.995217 207.808859 
L 615.262503 198.439289 
L 615.529788 224.420208 
L 615.797074 205.129623 
L 616.59893 225.698556 
L 617.133501 195.465898 
L 617.400787 209.534272 
L 617.668073 204.251731 
L 617.935358 214.733612 
L 618.202644 212.014995 
L 618.469929 213.613845 
L 618.737215 222.908355 
L 619.0045 212.522711 
L 619.271786 210.704674 
L 619.539071 217.506386 
L 619.806357 220.38546 
L 620.073642 205.902954 
L 620.875499 219.084745 
L 621.41007 187.608364 
L 621.677355 221.929102 
L 621.944641 204.00789 
L 622.211926 216.296648 
L 622.479212 207.688424 
L 622.746497 210.251982 
L 623.013783 220.625505 
L 623.281069 212.993241 
L 623.548354 211.250812 
L 623.81564 197.602974 
L 624.350211 220.896196 
L 624.617496 204.973832 
L 624.884782 202.003277 
L 625.152067 186.963014 
L 625.419353 214.603847 
L 625.686638 196.464316 
L 625.953924 193.554367 
L 626.221209 224.725707 
L 626.488495 213.918795 
L 626.75578 214.273282 
L 627.023066 194.832807 
L 627.290351 212.090923 
L 627.557637 216.654062 
L 627.824922 202.073397 
L 628.092208 200.479441 
L 628.626779 207.164653 
L 628.894065 206.619978 
L 629.428636 201.217963 
L 629.695921 193.494585 
L 629.963207 217.687472 
L 630.230492 201.322022 
L 630.497778 210.633182 
L 630.765063 188.62677 
L 631.032349 208.188411 
L 631.299634 191.850497 
L 631.56692 198.649419 
L 631.834205 198.306276 
L 632.101491 193.881273 
L 632.368776 212.426931 
L 632.636062 207.523119 
L 632.903347 220.110744 
L 633.170633 206.071004 
L 633.437918 207.003327 
L 633.705204 206.801933 
L 633.972489 212.852773 
L 634.239775 226.227496 
L 634.50706 202.15111 
L 634.774346 211.588238 
L 635.041632 197.293678 
L 635.308917 227.876067 
L 635.576203 208.07589 
L 635.843488 212.990314 
L 636.110774 221.225389 
L 636.378059 205.813303 
L 636.645345 198.226414 
L 636.91263 203.448486 
L 637.179916 200.592099 
L 637.447201 207.64863 
L 637.714487 208.330663 
L 637.981772 209.636822 
L 638.249058 213.883301 
L 638.516343 195.103361 
L 638.783629 225.328335 
L 639.050914 212.373644 
L 639.3182 205.099892 
L 639.585485 210.63213 
L 639.852771 213.812358 
L 640.387342 204.822935 
L 640.654628 196.119846 
L 640.921913 219.322411 
L 641.189199 197.114651 
L 641.456484 230.063823 
L 641.72377 212.791481 
L 641.991055 203.317761 
L 642.258341 215.47712 
L 642.525626 210.342731 
L 642.792912 207.558751 
L 643.060197 199.540851 
L 643.327483 222.545589 
L 643.862054 208.748683 
L 644.129339 191.700103 
L 644.66391 213.124562 
L 644.931196 195.253663 
L 645.198481 192.692346 
L 645.465767 200.233633 
L 645.733052 213.27029 
L 646.000338 208.975738 
L 646.267624 220.541938 
L 646.534909 194.249573 
L 646.802195 200.71482 
L 647.06948 198.598602 
L 647.336766 211.733098 
L 647.604051 207.809362 
L 647.871337 215.530865 
L 648.138622 207.043761 
L 648.405908 140.612681 
L 648.673193 222.94385 
L 648.940479 198.845325 
L 649.207764 201.888286 
L 649.47505 215.283867 
L 649.742335 212.471665 
L 650.009621 208.270698 
L 650.276906 220.802291 
L 650.544192 212.361843 
L 650.811477 209.21034 
L 651.078763 188.229562 
L 651.346048 202.956458 
L 651.613334 210.547373 
L 651.88062 190.080578 
L 652.147905 210.344424 
L 652.415191 193.312218 
L 652.682476 219.290942 
L 652.949762 210.38806 
L 653.217047 195.888126 
L 653.484333 212.831641 
L 653.751618 210.03554 
L 654.018904 211.340143 
L 654.286189 210.73596 
L 654.553475 228.260696 
L 654.82076 215.715015 
L 655.088046 214.272139 
L 655.622617 191.242289 
L 655.889902 218.648703 
L 656.157188 220.214026 
L 656.424473 218.20118 
L 656.691759 206.364336 
L 656.959044 213.434681 
L 657.22633 215.962012 
L 657.493616 212.597222 
L 657.760901 216.843473 
L 658.028187 181.731656 
L 658.295472 184.59678 
L 658.562758 199.616643 
L 658.830043 195.52655 
L 659.097329 194.952418 
L 659.364614 222.028679 
L 659.6319 212.164382 
L 659.899185 192.581747 
L 660.166471 202.522201 
L 660.433756 203.153279 
L 660.701042 208.43024 
L 660.968327 206.399556 
L 661.235613 197.381591 
L 661.770184 220.184889 
L 662.037469 214.390332 
L 662.304755 212.038642 
L 662.57204 189.058284 
L 663.106611 220.150081 
L 663.373897 205.887173 
L 663.641183 214.854549 
L 663.908468 199.819684 
L 664.175754 206.048362 
L 664.443039 189.922043 
L 664.710325 200.138402 
L 664.97761 225.99541 
L 665.244896 228.248118 
L 665.512181 205.17948 
L 665.779467 201.401976 
L 666.046752 203.736467 
L 666.314038 211.713932 
L 666.581323 213.586767 
L 666.848609 204.80592 
L 667.115894 214.669164 
L 667.38318 212.601476 
L 667.650465 202.343997 
L 667.917751 205.61726 
L 668.452322 195.026014 
L 668.719607 225.660226 
L 668.986893 206.329573 
L 669.254179 209.860675 
L 669.521464 206.732911 
L 669.78875 210.697127 
L 670.056035 209.388773 
L 670.323321 200.335359 
L 670.590606 199.444568 
L 670.857892 205.658518 
L 671.125177 220.082934 
L 671.392463 196.928305 
L 671.659748 222.832518 
L 671.927034 206.043742 
L 672.194319 208.622486 
L 672.461605 214.974846 
L 672.72889 217.807677 
L 672.996176 197.978227 
L 673.263461 214.191361 
L 673.530747 214.674927 
L 673.798032 202.530205 
L 674.065318 213.773799 
L 674.332603 198.568139 
L 674.599889 202.193145 
L 674.867175 211.878231 
L 675.13446 208.280761 
L 675.401746 233.983671 
L 675.936317 199.734653 
L 676.203602 209.819143 
L 676.470888 228.520821 
L 676.738173 223.041139 
L 677.005459 221.550099 
L 677.272744 202.002408 
L 677.54003 213.649065 
L 677.807315 202.95934 
L 678.074601 197.714626 
L 678.341886 206.35624 
L 678.609172 218.773894 
L 678.876457 193.896367 
L 679.143743 215.912064 
L 679.143743 215.912064 
" clip-path="url(#pe442a36c02)" style="fill: none; stroke: #1f77b4; stroke-width: 1.5; stroke-linecap: square"/>
   </g>
   <g id="patch_3">
    <path d="M 47.962344 245.877656 
L 47.962344 26.16 
" style="fill: none; stroke: #000000; stroke-width: 0.8; stroke-linejoin: miter; stroke-linecap: square"/>
   </g>
   <g id="patch_4">
    <path d="M 709.2 245.877656 
L 709.2 26.16 
" style="fill: none; stroke: #000000; stroke-width: 0.8; stroke-linejoin: miter; stroke-linecap: square"/>
   </g>
   <g id="patch_5">
    <path d="M 47.962344 245.877656 
L 709.2 245.877656 
" style="fill: none; stroke: #000000; stroke-width: 0.8; stroke-linejoin: miter; stroke-linecap: square"/>
   </g>
   <g id="patch_6">
    <path d="M 47.962344 26.16 
L 709.2 26.16 
" style="fill: none; stroke: #000000; stroke-width: 0.8; stroke-linejoin: miter; stroke-linecap: square"/>
   </g>
   <g id="text_13">
    <!-- Train loss over steps (n=2250) -->
    <g transform="translate(286.701484 20.16) scale(0.12 -0.12)">
     <defs>
      <path id="DejaVuSans-59" d="M 191 3500 
L 800 3500 
L 1894 563 
L 2988 3500 
L 3597 3500 
L 2284 0 
L 1503 0 
L 191 3500 
z
" transform="scale(0.015625)"/>
      <path id="DejaVuSans-b" d="M 1984 4856 
Q 1566 4138 1362 3434 
Q 1159 2731 1159 2009 
Q 1159 1288 1364 580 
Q 1569 -128 1984 -844 
L 1484 -844 
Q 1016 -109 783 600 
Q 550 1309 550 2009 
Q 550 2706 781 3412 
Q 1013 4119 1484 4856 
L 1984 4856 
z
" transform="scale(0.015625)"/>
      <path id="DejaVuSans-20" d="M 678 2906 
L 4684 2906 
L 4684 2381 
L 678 2381 
L 678 2906 
z
M 678 1631 
L 4684 1631 
L 4684 1100 
L 678 1100 
L 678 1631 
z
" transform="scale(0.015625)"/>
      <path id="DejaVuSans-c" d="M 513 4856 
L 1013 4856 
Q 1481 4119 1714 3412 
Q 1947 2706 1947 2009 
Q 1947 1309 1714 600 
Q 1481 -109 1013 -844 
L 513 -844 
Q 928 -128 1133 580 
Q 1338 1288 1338 2009 
Q 1338 2731 1133 3434 
Q 928 4138 513 4856 
z
" transform="scale(0.015625)"/>
     </defs>
     <use xlink:href="#DejaVuSans-37"/>
     <use xlink:href="#DejaVuSans-55" transform="translate(46.375 0)"/>
     <use xlink:href="#DejaVuSans-44" transform="translate(87.484375 0)"/>
     <use xlink:href="#DejaVuSans-4c" transform="translate(148.765625 0)"/>
     <use xlink:href="#DejaVuSans-51" transform="translate(176.546875 0)"/>
     <use xlink:href="#DejaVuSans-3" transform="translate(239.921875 0)"/>
     <use xlink:href="#DejaVuSans-4f" transform="translate(271.703125 0)"/>
     <use xlink:href="#DejaVuSans-52" transform="translate(299.484375 0)"/>
     <use xlink:href="#DejaVuSans-56" transform="translate(360.671875 0)"/>
     <use xlink:href="#DejaVuSans-56" transform="translate(412.765625 0)"/>
     <use xlink:href="#DejaVuSans-3" transform="translate(464.859375 0)"/>
     <use xlink:href="#DejaVuSans-52" transform="translate(496.640625 0)"/>
     <use xlink:href="#DejaVuSans-59" transform="translate(557.828125 0)"/>
     <use xlink:href="#DejaVuSans-48" transform="translate(617.015625 0)"/>
     <use xlink:href="#DejaVuSans-55" transform="translate(678.546875 0)"/>
     <use xlink:href="#DejaVuSans-3" transform="translate(719.65625 0)"/>
     <use xlink:href="#DejaVuSans-56" transform="translate(751.4375 0)"/>
     <use xlink:href="#DejaVuSans-57" transform="translate(803.53125 0)"/>
     <use xlink:href="#DejaVuSans-48" transform="translate(842.734375 0)"/>
     <use xlink:href="#DejaVuSans-53" transform="translate(904.265625 0)"/>
     <use xlink:href="#DejaVuSans-56" transform="translate(967.75 0)"/>
     <use xlink:href="#DejaVuSans-3" transform="translate(1019.84375 0)"/>
     <use xlink:href="#DejaVuSans-b" transform="translate(1051.625 0)"/>
     <use xlink:href="#DejaVuSans-51" transform="translate(1090.640625 0)"/>
     <use xlink:href="#DejaVuSans-20" transform="translate(1154.015625 0)"/>
     <use xlink:href="#DejaVuSans-15" transform="translate(1237.8125 0)"/>
     <use xlink:href="#DejaVuSans-15" transform="translate(1301.4375 0)"/>
     <use xlink:href="#DejaVuSans-18" transform="translate(1365.0625 0)"/>
     <use xlink:href="#DejaVuSans-13" transform="translate(1428.6875 0)"/>
     <use xlink:href="#DejaVuSans-c" transform="translate(1492.3125 0)"/>
    </g>
   </g>
  </g>
 </g>
 <defs>
  <clipPath id="pe442a36c02">
   <rect x="47.962344" y="26.16" width="661.237656" height="219.717656"/>
  </clipPath>
 </defs>
</svg>
